<svg width="136" height="31" viewBox="0 0 136 31" fill="none" xmlns="http://www.w3.org/2000/svg">
<path d="M29.4475 7.09595H33.4864V24.2008C33.4864 28.3005 32.3077 31.0001 28.0992 31.0001C26.1779 30.9973 24.3212 30.2956 22.8659 29.0224L23.6608 26.0124C24.0719 26.4771 25.3695 27.6321 27.2069 27.6558C28.485 27.6716 29.4475 26.758 29.4475 25.3222V7.09595Z" fill="white"/>
<path d="M53.3305 16.573H40.1342C40.1342 19.3417 42.0534 21.4242 45.6228 21.4242C47.9744 21.4242 50.1547 20.463 51.3159 19.3437L52.255 22.2785C50.4703 23.92 47.9121 24.7744 45.1162 24.7744C40.1011 24.7744 36.0271 21.0168 36.0271 15.9579C36.0271 10.8318 39.9336 6.66284 44.8142 6.66284C50.2345 6.66284 53.4318 10.3196 53.4318 15.3765C53.4305 15.7774 53.3966 16.1776 53.3305 16.573V16.573ZM44.8142 10.011C42.4918 10.011 40.6739 11.516 40.1011 13.9071H49.6286C49.1902 11.6861 47.5419 10.011 44.8142 10.011V10.011Z" fill="white"/>
<path d="M62.2891 18.2461C62.2891 20.3998 63.4678 21.1513 64.781 21.1513C65.7528 21.1572 66.7152 20.9592 67.6081 20.5699V23.7816C66.4644 24.2958 64.9486 24.4995 63.5691 24.4995C60.5726 24.4995 58.2832 23.0301 58.2832 18.7247V10.5589H54.9515V7.17509H58.2209L59.2769 3.17822H62.2891V7.17509H67.575V10.5589H62.2891V18.2461Z" fill="white"/>
<path d="M74.5539 0V24.2601H70.5403V0H74.5539Z" fill="white"/>
<path d="M110.673 14.625C110.673 12.1647 109.504 10.6261 107.475 10.6261C105.96 10.6261 103.503 11.6861 102.357 13.9763V24.2602H98.3513V7.17508H102.357V9.74605C103.838 7.79805 106.162 6.73999 108.652 6.73999C112.12 6.73999 114.679 9.20022 114.679 13.6084V24.2681H110.673V14.625Z" fill="white"/>
<path d="M131.177 24.2601V22.0392C130.552 22.8821 129.744 23.5673 128.816 24.0417C127.888 24.516 126.864 24.7667 125.825 24.7743C120.909 24.7743 117.611 20.7062 117.611 15.7185C117.611 10.7645 120.909 6.66277 125.825 6.66277C126.867 6.67664 127.891 6.93357 128.819 7.41368C129.747 7.8938 130.554 8.58422 131.177 9.43151V0H135.183V24.2601H131.177ZM131.177 18.8966V12.5681C130.694 11.9157 130.069 11.3852 129.351 11.0179C128.633 10.6505 127.841 10.4562 127.037 10.45C124.21 10.45 121.887 12.8766 121.887 15.7126C121.873 16.8187 122.204 17.9009 122.834 18.8037C123.463 19.7065 124.359 20.3832 125.392 20.7365C126.424 21.0898 127.541 21.1015 128.581 20.7698C129.62 20.4381 130.529 19.7802 131.177 18.8907V18.8966Z" fill="white"/>
<path d="M95.1169 16.573H81.9207C81.9207 19.3417 83.8379 21.4242 87.4073 21.4242C89.7589 21.4242 91.9411 20.463 93.1004 19.3437L94.0375 22.2785C92.2528 23.92 89.6946 24.7744 86.9007 24.7744C81.8837 24.7744 77.8116 21.0168 77.8116 15.9579C77.8116 10.8318 81.7083 6.66284 86.5967 6.66284C92.0171 6.66284 95.2143 10.3196 95.2143 15.3765C95.2134 15.7773 95.1809 16.1774 95.1169 16.573ZM86.5987 10.011C84.2763 10.011 82.4584 11.516 81.8856 13.9071H91.4131C90.9747 11.6861 89.3264 10.011 86.5987 10.011V10.011Z" fill="white"/>
<path d="M24.2064 0.0632324L0 7.17494L10.1003 17.4272L17.6833 24.7742L24.2064 0.0632324Z" fill="#0BD194"/>
</svg>
