<svg width="92" height="66" viewBox="0 0 92 66" fill="none" xmlns="http://www.w3.org/2000/svg">
										<path fill-rule="evenodd" clip-rule="evenodd" d="M92 66H0V-1.52588e-05H92V66ZM13.8537 46.2652C15.4951 46.2652 15.8073 47.3837 15.9647 47.9609H17.9461C17.8379 46.5538 16.6889 44.5809 13.8422 44.5809C11.3937 44.5809 9.47876 46.2767 9.47876 49.6203C9.47876 52.9086 11.289 54.6353 13.8174 54.6353C16.2024 54.6353 17.5535 53.1887 17.9461 51.1077H15.9647C15.7294 52.2791 14.9561 52.9475 13.8537 52.9475C12.1784 52.9475 11.4577 51.3604 11.4577 49.6477C11.4577 46.9506 12.8997 46.2652 13.8537 46.2652ZM22.7009 47.3043L20.3715 49.9905V47.3043H18.5226V54.3859H20.3715V52.1493L21.1393 51.3443L22.8195 54.3859H25.0363L22.4934 50.0403L24.9697 47.3043H22.7009ZM31.8002 50.8311C31.8002 53.3837 30.0952 54.5715 28.2076 54.5715C26.3229 54.5715 24.604 53.4012 24.604 50.8476C24.604 48.292 26.3229 47.1201 28.2076 47.1201C30.0952 47.1201 31.8002 48.278 31.8002 50.8311ZM26.5051 50.8311C26.5051 51.7383 26.7791 53.0009 28.2076 53.0009C29.6366 53.0009 29.8987 51.7523 29.8987 50.8476C29.8987 49.9374 29.6366 48.6883 28.2076 48.6883C26.7791 48.6883 26.5051 49.9234 26.5051 50.8311ZM38.7479 54.3858V47.3038H33.0745V50.6225C33.0745 52.7788 32.7871 53.0539 32.2317 53.0539C31.9582 53.0539 31.7229 53.0285 31.6847 53.0011V54.3858C31.9582 54.4885 32.4863 54.5408 32.8094 54.5408C34.1084 54.5408 34.9204 53.6865 34.9204 50.9779V48.7941H36.8989V54.3858H38.7479ZM41.541 49.9905L43.8704 47.3043H46.1393L43.6605 50.0403L46.2058 54.3859H43.9891L42.3118 51.3443L41.541 52.1493V54.3859H39.6921V47.3043H41.541V49.9905ZM49.38 54.5715C51.2677 54.5715 52.9697 53.3837 52.9697 50.8311C52.9697 48.278 51.2677 47.1201 49.38 47.1201C47.4924 47.1201 45.7764 48.292 45.7764 50.8476C45.7764 53.4012 47.4924 54.5715 49.38 54.5715ZM49.38 53.0009C47.9515 53.0009 47.678 51.7383 47.678 50.8311C47.678 49.9234 47.9515 48.6883 49.38 48.6883C50.8026 48.6883 51.0741 49.9374 51.0741 50.8476C51.0741 51.7523 50.8026 53.0009 49.38 53.0009ZM53.5689 47.3042H56.7526C58.3275 47.3042 59.4796 47.9512 59.4796 49.1336C59.4796 49.949 58.9023 50.4734 58.1667 50.6593C58.8879 50.8323 59.689 51.2949 59.689 52.4528C59.689 53.7647 58.7003 54.3868 57.103 54.3868H53.5689V47.3042ZM55.4144 50.1713H56.6196C57.2331 50.1713 57.6674 49.9246 57.6674 49.3693C57.6674 48.7916 57.2494 48.5813 56.6334 48.5813H55.4144V50.1713ZM55.4144 53.1102H56.7739C57.4569 53.1102 57.8798 52.8994 57.8798 52.1996C57.8798 51.581 57.4346 51.2949 56.7526 51.2949H55.4144V53.1102ZM63.4996 54.5715C65.3897 54.5715 67.0893 53.3837 67.0893 50.8311C67.0893 48.278 65.3897 47.1201 63.4996 47.1201C61.6144 47.1201 59.8931 48.292 59.8931 50.8476C59.8931 53.4012 61.6144 54.5715 63.4996 54.5715ZM63.4996 53.0009C62.0731 53.0009 61.7946 51.7383 61.7946 50.8311C61.7946 49.9234 62.0731 48.6883 63.4996 48.6883C64.9281 48.6883 65.1882 49.9374 65.1882 50.8476C65.1882 51.7523 64.9281 53.0009 63.4996 53.0009ZM22.9184 42.98C24.4938 42.98 28.3734 42.7028 31.2726 40.5769V42.1894H37.1222L37.1281 35.0989L39.5707 32.5598L44.8877 42.1894H51.9062L43.8513 28.4301L51.6967 19.7579H44.512L37.1281 28.2666V11.9212H31.2726V14.5072C29.4897 12.5847 26.5994 11.1307 22.0925 11.1307C12.337 11.1307 10.5055 17.0907 10.5055 20.4269C10.5055 25.0112 12.9595 27.5588 17.2341 28.5995L23.2946 30.0979C26.4912 30.8914 28.7769 31.4741 28.7769 33.8503C28.7769 37.0194 25.4528 37.7686 22.4627 37.7686C16.9825 37.7686 16.0706 34.5601 16.0706 32.8514H10.0493C10.0493 36.6027 11.9588 42.98 22.9184 42.98ZM26.9061 24.9309L19.561 23.135C18.3122 22.8439 16.3605 22.3414 16.3605 19.9688C16.3605 17.2577 19.2265 16.3395 21.6338 16.3395C27.1136 16.3395 27.6139 19.5526 27.7768 20.9263H31.2726V26.5683C29.99 25.8162 28.4761 25.3277 26.9061 24.9309Z" fill="#ACBBBE"></path>
									</svg>