<svg width="134" height="15" viewBox="0 0 134 15" fill="none" xmlns="http://www.w3.org/2000/svg">
										<path fill-rule="evenodd" clip-rule="evenodd" d="M0 1.22249C0.538964 0.991208 1.11161 0.89209 1.68426 0.89209C2.25691 0.89209 2.82956 1.02425 3.36853 1.22249C5.69281 2.11456 6.83811 4.69165 5.89492 6.97138C4.95173 9.25112 2.32428 10.3745 0 9.44936V1.22249ZM7.91604 5.35246C7.91604 2.90752 9.93715 0.925145 12.4299 0.925145C14.9226 0.925145 16.9437 2.90752 16.9437 5.35246C16.9437 7.79739 14.9226 9.77977 12.4299 9.77977C9.93715 9.77977 7.91604 7.79739 7.91604 5.35246ZM24.8934 11.4318H0V14.7688H24.8934V11.4318ZM23.1755 0.89209C23.7481 0.89209 24.3208 0.991208 24.8597 1.22249V9.44936C22.5355 10.3745 19.908 9.28416 18.9648 7.00442C18.0216 4.72469 19.1332 2.1476 21.4575 1.22249C22.0302 1.02425 22.6028 0.89209 23.1755 0.89209ZM45.5425 7.99564C45.5425 6.01326 44.8688 4.36128 43.5214 3.03969C42.174 1.68506 40.4897 1.02427 38.4349 0.958193C35.9759 0.958193 33.7527 2.18066 32.5737 4.13L34.898 5.45158C35.5717 4.22912 36.8854 3.53528 38.4349 3.53528C40.6581 3.53528 42.2413 4.75775 42.7129 6.70709H36.6159V9.18506H42.7129C42.2413 11.1344 40.6581 12.3569 38.4349 12.3569C36.8854 12.3569 35.538 11.63 34.898 10.4736L32.5737 11.7952C33.7527 13.7445 35.9422 14.967 38.4349 14.967C40.4897 14.967 42.174 14.3062 43.5214 12.9516C44.8688 11.63 45.5425 9.97802 45.5425 7.99564ZM56.3218 14.7027H53.3912L49.8542 10.3414V14.7027H47.3278V5.12116H49.8542V9.35024L53.2227 5.12116H56.2207L52.2796 9.84583L56.3218 14.7027ZM56.3891 9.9119C56.3891 11.3326 56.8607 12.522 57.8376 13.5132C58.8482 14.5044 60.0608 14.967 61.5767 14.967C63.4631 14.967 65.1136 14.0088 65.9894 12.489L63.7999 11.2665C63.3957 12.0595 62.5536 12.522 61.543 12.522C60.7682 12.522 60.1619 12.2577 59.6566 11.7952C59.185 11.2996 58.9155 10.6718 58.9155 9.9119C58.9155 8.39208 60.0272 7.30177 61.543 7.30177C62.5199 7.30177 63.362 7.79737 63.7662 8.59032L65.9221 7.33481C65.1136 5.81499 63.4294 4.85684 61.543 4.85684C60.0608 4.85684 58.8482 5.31939 57.8376 6.31058C56.8607 7.30177 56.3891 8.4912 56.3891 9.9119ZM76.2972 5.12116V14.7027H73.7708V7.43394H69.897V14.7027H67.3706V5.12116H76.2972ZM79.5646 13.5132C80.5752 14.5044 81.7878 14.967 83.2363 14.967C84.6848 14.967 85.8974 14.5044 86.908 13.5132C87.9186 12.522 88.4238 11.2996 88.4238 9.9119C88.4238 8.52424 87.9186 7.33481 86.908 6.34362C85.8974 5.35243 84.6848 4.85684 83.2363 4.85684C81.7878 4.85684 80.5752 5.35243 79.5646 6.34362C78.554 7.30177 78.0825 8.4912 78.0825 9.9119C78.0825 11.3326 78.554 12.522 79.5646 13.5132ZM85.1227 11.7952C84.6174 12.2908 84.0111 12.5551 83.2363 12.5551C82.4615 12.5551 81.8552 12.2908 81.3499 11.7952C80.8783 11.2996 80.6088 10.6718 80.6088 9.9119C80.6088 9.15199 80.8783 8.52424 81.3499 8.02864C81.8552 7.53305 82.4615 7.26873 83.2363 7.26873C83.9774 7.26873 84.6174 7.53305 85.1227 8.02864C85.628 8.52424 85.8974 9.15199 85.8974 9.9119C85.8974 10.6718 85.628 11.2996 85.1227 11.7952ZM91.085 13.5132C90.1418 12.5221 89.6702 11.2996 89.6702 9.8128C89.6702 8.19386 89.9397 6.90531 90.4113 6.04628C90.9166 5.15421 91.8934 4.32822 93.4093 3.60135C93.6114 3.50223 93.9482 3.33703 94.3525 3.17183L95.1609 2.77536C95.2555 2.73825 95.3607 2.68031 95.4825 2.61323L95.4826 2.61318C95.5776 2.56082 95.6828 2.50289 95.8009 2.44496C96.5083 2.01545 96.7104 1.68505 97.0473 0.925137L99.1021 2.08152C98.9337 2.87448 98.5631 3.46919 97.9568 3.8987C97.3841 4.32822 96.5083 4.75774 95.2957 5.18725C93.6451 5.815 93.0051 6.40972 92.6682 7.30179C93.3756 6.57492 94.3525 6.21148 95.5988 6.21148C96.6768 6.21148 97.6536 6.60796 98.4958 7.36787C99.3379 8.12778 99.7758 9.15201 99.7758 10.4406C99.7758 11.7621 99.3379 12.8194 98.3947 13.6784C97.4852 14.5375 96.3062 14.9339 94.8241 14.9339C93.2745 14.967 92.0619 14.5044 91.085 13.5132ZM93.0724 8.78857C92.5671 9.18505 92.3314 9.71368 92.3314 10.3745C92.3314 11.0353 92.5672 11.5969 93.0387 12.0265C93.544 12.456 94.1167 12.6873 94.8241 12.6873C95.5315 12.6873 96.1041 12.489 96.5757 12.0595C97.0136 11.63 97.2494 11.1013 97.2494 10.4406C97.2494 9.15201 96.2388 8.19386 94.8241 8.19386C94.1504 8.19386 93.5777 8.3921 93.0724 8.78857ZM111.229 5.12116H108.702V6.2445C107.928 5.31939 106.883 4.85684 105.502 4.85684C104.189 4.85684 103.077 5.35243 102.134 6.34362C101.224 7.30177 100.753 8.4912 100.753 9.9119C100.753 11.3326 101.224 12.522 102.134 13.5132C103.077 14.5044 104.189 14.967 105.502 14.967C106.883 14.967 107.928 14.5044 108.702 13.5793V14.7027H111.229V5.12116ZM107.894 11.8612C107.389 12.3568 106.749 12.6212 105.974 12.6212C105.199 12.6212 104.559 12.3568 104.054 11.8612C103.549 11.3656 103.279 10.7049 103.279 9.9119C103.279 9.11895 103.549 8.45816 104.054 7.96257C104.559 7.46697 105.199 7.20265 105.974 7.20265C106.749 7.20265 107.389 7.43393 107.894 7.96257C108.399 8.4912 108.669 9.11895 108.669 9.9119C108.669 10.7049 108.433 11.3326 107.894 11.8612ZM119.92 5.12116H122.446V14.7027H119.92V11.0683H116.046V14.7027H113.519V5.12116H116.046V8.75552H119.92V5.12116ZM130.8 14.7027H133.731L129.688 9.84583L133.596 5.12116H130.598L127.229 9.35024V5.12116H124.703V14.7027H127.229V10.3414L130.8 14.7027Z" fill="#ACBBBE"></path>
									</svg>