<svg width="158" height="49" viewBox="0 0 158 49" fill="none" xmlns="http://www.w3.org/2000/svg">
										<path d="M9.81776 19.5919C9.64874 19.8271 9.47972 20.0623 9.31069 20.2974C9.02409 20.5914 8.73013 20.8853 8.44353 21.1793C7.96586 21.5173 7.48083 21.848 7.00316 22.1861C5.76856 22.7446 4.46046 23.0239 3.07153 23.1561C3.38753 23.4133 3.71823 23.3913 4.02688 23.3913C6.92232 23.406 9.81776 23.4427 12.7132 23.3839C14.6312 23.3472 16.3803 22.7225 17.7986 21.363C18.1954 21.1646 18.4232 20.8045 18.6437 20.4444C18.9744 20.1872 19.1581 19.8198 19.3786 19.4744C19.5623 19.32 19.6799 19.1363 19.7019 18.8938C20.0032 18.4749 20.187 18.0193 20.2384 17.5049C20.4368 17.255 20.4368 16.9611 20.4221 16.6671C20.4221 16.6671 20.4221 16.6671 20.4221 16.6598C20.7014 15.8367 20.5838 14.9842 20.5544 14.1465C20.5544 13.8525 20.5544 13.5586 20.5544 13.2719C20.5544 12.8016 20.5544 12.3313 20.5544 11.8683C20.5544 11.398 20.5544 10.935 20.5544 10.4647C20.5544 10.1707 20.5544 9.87679 20.5544 9.58283C20.5544 9.1713 20.5544 8.75977 20.5544 8.35558C20.5544 8.00284 20.5544 7.65009 20.5544 7.3047C20.5544 6.77558 20.5544 6.25381 20.5544 5.7247C20.5544 5.37195 20.5544 5.01921 20.5544 4.66647C20.5544 4.49009 20.5544 4.31372 20.5544 4.13735C20.5765 3.71847 20.6499 3.29223 20.4148 2.8954H20.4221C20.4442 2.60879 20.4221 2.35158 20.0253 2.40303C18.5923 2.5647 17.1152 2.50591 15.7997 3.23344C14.8811 3.53475 14.2712 4.18144 13.8229 5.00451C13.5069 5.3646 13.3379 5.79819 13.2129 6.25381C13.0219 6.6433 12.8896 7.04749 12.8528 7.48107C12.6838 7.92935 12.5956 8.39232 12.6177 8.87735C12.4486 9.1566 12.478 9.4579 12.4927 9.76656C12.3899 10.3471 12.2943 10.9203 12.3311 11.5156C12.3164 11.7507 12.3017 11.9859 12.287 12.2284C12.1253 12.6253 12.1106 13.0368 12.1179 13.4557C12.0077 13.926 11.8975 14.389 11.7873 14.8593C11.677 15.212 11.5668 15.5648 11.4639 15.9175C11.3463 16.2703 11.2214 16.623 11.1038 16.9684C10.9054 17.4314 10.6996 17.8944 10.5012 18.3573C10.2734 18.7689 10.0456 19.1804 9.81776 19.5919Z" fill="#ACBBBE"></path>
										<path d="M43.2844 19.9521C43.3064 19.7022 43.3138 19.4597 43.1668 19.2392C43.1594 18.9894 43.1594 18.7468 42.9977 18.5337C42.9463 18.1516 42.8361 17.7988 42.5862 17.4975C42.5201 17.1962 42.3584 16.9611 42.1159 16.7774C41.9983 16.5275 41.8072 16.3511 41.5647 16.2188C41.381 15.9837 41.1605 15.8073 40.8666 15.7338C40.5506 15.4619 40.1978 15.2855 39.7863 15.2194C39.1764 14.8961 38.5297 14.727 37.8462 14.6903C37.4641 14.4919 37.0599 14.4919 36.6484 14.5066C36.0237 14.2788 35.3697 14.3228 34.723 14.3228C33.5986 14.1538 32.4742 13.9848 31.3498 13.8084C31.3058 13.7717 31.2617 13.757 31.2176 13.7496C30.8722 13.588 30.4974 13.5071 30.1152 13.463C29.7919 13.2573 29.4318 13.1764 29.0644 13.1103C28.6455 12.9339 28.2266 12.7649 27.8077 12.5885C27.6093 12.3975 27.3741 12.2946 27.1022 12.2358C26.5731 11.883 26.0366 11.5376 25.5075 11.1849C25.2062 10.8909 24.9123 10.6043 24.611 10.3104C24.3317 9.95764 24.0525 9.59755 23.7732 9.2448C23.7585 8.90676 23.5601 8.6422 23.3984 8.37029C23.3029 7.64276 22.8032 7.02546 22.8473 6.26118C22.8913 5.8276 22.7738 5.43811 22.5312 5.05597C22.5312 5.40136 22.5312 5.74676 22.5312 6.09215C22.5312 6.79764 22.5312 7.49578 22.5312 8.20127C22.5312 8.67159 22.5312 9.13457 22.5312 9.6049C22.5312 9.95764 22.5312 10.3104 22.5312 10.6558C22.5312 11.0085 22.5312 11.3613 22.5312 11.714C22.5312 12.1255 22.5312 12.5297 22.5312 12.9413C22.5312 13.1764 22.5312 13.4116 22.5312 13.6468C22.5312 13.8819 22.5312 14.1171 22.5312 14.3522C22.5386 14.5874 22.5386 14.8226 22.5459 15.0577C22.5533 15.1753 22.5533 15.2929 22.5606 15.4105C22.4798 15.8808 22.6929 16.2776 22.8619 16.6892C22.8619 16.8802 22.8693 17.0713 23.031 17.2183C23.0383 17.402 23.0604 17.5857 23.2294 17.7107C23.2294 17.8503 23.2588 17.9826 23.3984 18.0561C23.4792 18.4088 23.663 18.7101 23.9275 18.96C24.0378 19.2466 24.2068 19.4817 24.4566 19.6581C24.5081 19.7095 24.5522 19.7683 24.6036 19.8198C24.8902 20.2534 25.2797 20.5767 25.6986 20.8707C26.0072 21.1646 26.36 21.3924 26.7642 21.5321C27.139 21.7893 27.5432 21.995 27.9988 22.0685C28.7263 22.3992 29.4906 22.5094 30.2769 22.4654C31.8055 22.5535 33.3267 22.5535 34.8552 22.4727C34.9067 22.4213 34.9581 22.3919 35.0169 22.3625C34.9655 22.3992 34.9067 22.4286 34.8552 22.4727C37.4273 22.5535 39.9994 22.5315 42.5789 22.4874C43.3872 22.4727 43.7179 22.1934 43.4607 21.3851C43.4754 20.8707 43.424 20.4077 43.2844 19.9521Z" fill="#ACBBBE"></path>
										<path d="M33.6353 27.6904C33.8925 27.4259 34.1571 27.1613 34.282 26.8012C34.6568 26.4705 35.0242 26.1472 35.399 25.8165C36.8762 24.8464 38.5076 24.3908 40.264 24.3173C40.3962 24.3394 40.6167 24.3541 40.5579 24.185C40.455 23.8911 40.1611 23.994 39.9259 24.0234C39.0514 24.0234 38.1842 24.016 37.3097 24.016C35.083 23.9572 32.8637 23.8543 30.637 23.869C29.1599 23.8764 27.7563 24.2585 26.5363 25.1551C25.9999 25.427 25.5222 25.7797 25.1548 26.2721C24.7653 26.544 24.4787 26.9041 24.2729 27.323C23.9569 27.6904 23.6556 28.0652 23.5601 28.5576C23.3396 28.8075 23.2367 29.1014 23.2147 29.4321C23.031 29.6232 23.0163 29.8583 23.031 30.1082C22.8105 30.4903 22.8325 30.9092 22.8399 31.3281C22.6268 33.0992 22.715 34.8702 22.7076 36.6487C22.7076 36.9426 22.7003 37.2366 22.7003 37.5305C22.7003 37.8245 22.6929 38.1184 22.6929 38.4124C22.6856 38.8827 22.6782 39.353 22.6709 39.816L22.6415 39.8748L22.6782 39.9262C22.6121 40.1614 22.5974 40.4039 22.6121 40.6464C22.5092 41.7781 22.4798 42.9172 22.6635 44.0489C22.59 44.5633 22.759 44.8059 23.3323 44.725C23.9643 44.6368 24.6109 44.6442 25.2356 44.5487C26.2644 44.4017 27.3006 44.262 28.109 43.5051C28.6381 43.2112 29.0643 42.8143 29.3362 42.2705C29.5935 41.9619 29.7698 41.6091 29.8801 41.227C30.0638 40.8963 30.2034 40.5582 30.2402 40.1761C30.3871 39.838 30.5121 39.4927 30.4606 39.1179C30.4312 38.5667 30.8869 38.1037 30.7619 37.5379C30.7766 37.3027 30.7987 37.0749 30.8134 36.8397C30.9824 36.5017 30.953 36.1416 30.9456 35.7815C31.0044 35.3112 31.0632 34.8482 31.122 34.3779C31.1294 34.3191 31.1294 34.2603 31.1367 34.1941C31.2837 33.8634 31.3425 33.5107 31.3498 33.1506C31.5336 32.8199 31.6217 32.4598 31.6585 32.0924C31.7981 31.8793 31.8716 31.6515 31.8716 31.3942C32.0627 31.1297 32.1582 30.8284 32.2023 30.5124C32.3052 30.2772 32.4081 30.0421 32.5183 29.8069C32.7094 29.3954 32.9078 28.9912 33.0989 28.5796C33.2752 28.271 33.4516 27.977 33.6353 27.6904Z" fill="#ACBBBE"></path>
										<path d="M1.90301 9.78864C1.89566 9.97971 1.91036 10.1634 2.07938 10.2884C2.13817 10.6558 2.31454 10.9645 2.5938 11.207C2.70403 11.4862 2.88775 11.6993 3.15231 11.839C3.36543 12.1403 3.65938 12.324 3.99743 12.4563C5.84198 13.4851 7.89231 13.1912 9.30328 11.6846C9.56784 11.523 9.74421 11.2952 9.8471 11.0012C10.0602 10.8175 10.1778 10.5897 10.2072 10.3104C10.4424 9.98706 10.5379 9.61962 10.5232 9.22278C10.604 8.92883 10.6334 8.64222 10.5452 8.34092C10.5305 8.16455 10.5158 7.98818 10.5085 7.81181C10.5526 7.47376 10.3836 7.20185 10.1998 6.93729C10.2439 6.71683 10.1411 6.55516 9.99407 6.41553C9.99407 6.15097 9.70012 6.09218 9.61193 5.88641C9.55314 5.62185 9.36207 5.47488 9.14896 5.34995C8.81826 4.82818 8.20096 4.77674 7.73798 4.47544C6.26087 3.85813 4.88663 4.04185 3.60059 4.98985C3.08617 5.18092 2.82161 5.62185 2.53501 6.04074C2.29985 6.29795 2.10878 6.58455 2.05733 6.93729C1.88831 7.07692 1.88831 7.27534 1.88831 7.46641C1.74133 7.62074 1.74133 7.81181 1.76338 8.00288C1.75603 8.17925 1.74868 8.35562 1.74133 8.53199C1.69724 8.96557 1.6605 9.3918 1.90301 9.78864Z" fill="#ACBBBE"></path>
										<path d="M41.381 37.8171C41.381 37.5819 41.3737 37.3468 41.1826 37.163C41.1605 36.8764 41.0356 36.6486 40.8298 36.4576C40.7784 36.2371 40.6608 36.0681 40.4697 35.9505C40.3154 35.6418 40.0729 35.414 39.7643 35.267C37.8609 33.7752 35.2521 34.0545 33.7015 35.9137C33.481 36.1048 33.2899 36.3032 33.2385 36.6045C33.0401 36.8103 32.8784 37.0381 32.9005 37.3468C32.6873 37.5966 32.6947 37.9053 32.6947 38.2066C32.7094 38.2213 32.7314 38.2286 32.7461 38.2433L32.6947 38.2066C32.5183 38.6255 32.5404 39.0443 32.7094 39.4559C32.6726 39.7719 32.7461 40.0658 32.9225 40.3304C32.9005 40.4774 32.9739 40.5876 33.0842 40.6831C33.1283 40.9697 33.2973 41.1829 33.4884 41.3886C33.6941 41.7561 33.966 42.0574 34.3408 42.2558C36.2001 43.9975 39.3454 43.2699 40.4918 41.5723C40.7784 41.3445 40.9548 41.0506 41.0503 40.7052C41.2561 40.4406 41.381 40.154 41.3663 39.8086C41.5574 39.5367 41.5353 39.2354 41.5059 38.9341C41.55 38.5446 41.5868 38.1698 41.381 37.8171Z" fill="#ACBBBE"></path>
										<path d="M51.3093 46.7239C51.3754 46.4961 51.3975 46.2756 51.3901 46.0478C51.3901 37.4129 51.3901 28.7854 51.3754 20.1505C51.3754 19.4303 51.4195 18.7028 51.3019 17.99C51.2946 17.865 51.2799 17.7401 51.2358 17.6225C51.1255 12.4636 51.0227 7.30475 50.9124 2.14587C50.8095 2.14587 50.7067 2.14587 50.6038 2.14587C50.6038 3.68913 50.6332 5.23973 50.5964 6.78299C50.3025 19.254 50.1335 31.7176 51.0594 44.1665C51.0374 45.041 50.9712 45.9008 51.3093 46.7239Z" fill="#ACBBBE"></path>
										<path d="M33.0548 9.28159C33.0621 9.47266 33.0695 9.66373 33.2385 9.80336C33.2385 9.94298 33.2679 10.0753 33.4075 10.1561C33.4222 10.2884 33.4516 10.4133 33.5913 10.4721C33.7382 10.8395 33.9734 11.1335 34.3188 11.3393C34.4878 11.5965 34.723 11.7728 35.0243 11.8684C35.2154 12.0741 35.4505 12.1844 35.7224 12.2138C37.4347 12.8899 38.9559 12.5886 40.3007 11.3393C40.5874 11.1923 40.7637 10.9498 40.9034 10.6705C41.065 10.5382 41.19 10.3766 41.212 10.1561C41.4472 9.91359 41.5574 9.61964 41.5647 9.28159C41.7485 9.06112 41.7338 8.80392 41.7117 8.53936C41.7191 8.36299 41.7191 8.18661 41.7264 8.01024C41.7191 7.89266 41.7191 7.77508 41.7117 7.6575C41.7117 7.59871 41.7044 7.53992 41.7044 7.48113C41.7411 7.22392 41.6823 6.9961 41.5354 6.78299C41.5647 6.57722 41.4619 6.41554 41.3369 6.25387C41.2634 5.94522 41.1091 5.68801 40.8666 5.48224C40.7196 5.12215 40.4477 4.86494 40.1097 4.67387C39.7863 4.30643 39.3821 4.06392 38.8971 3.96103C37.4274 3.33638 36.0678 3.54215 34.7891 4.46075C34.2453 4.73266 33.8485 5.15889 33.5766 5.70271C33.2091 6.17303 33.0034 6.70215 32.9372 7.29741C32.9299 7.41499 32.9225 7.53257 32.9078 7.6575C32.9005 7.83387 32.9005 8.01024 32.8931 8.18661C32.8711 8.55406 32.8343 8.93619 33.0548 9.28159Z" fill="#ACBBBE"></path>
										<path d="M0.470035 22.6491C2.18231 22.6417 3.81375 22.3404 5.25413 21.341C5.80529 21.341 6.12129 20.9442 6.48138 20.6282C7.03989 20.4518 7.41468 20.0403 7.78947 19.6214C8.13487 19.3862 8.41412 19.0996 8.61254 18.7322C8.93589 18.4456 9.18575 18.1075 9.32538 17.696C9.54584 17.5049 9.64873 17.2551 9.71487 16.9831C9.88389 16.77 10.0088 16.5422 10.0162 16.263C10.1778 16.1233 10.2072 15.9396 10.1925 15.7485C10.2881 15.4766 10.3836 15.2047 10.4718 14.9328C10.5673 14.6315 10.4938 14.4698 10.1484 14.5507C8.21571 15.0137 6.19478 15.0137 4.30613 15.7118C3.5051 15.8661 2.79962 16.2042 2.21171 16.77C1.78548 17.0346 1.47683 17.3947 1.25636 17.843C1.07999 18.0487 0.933012 18.2692 0.88157 18.5484C0.6905 18.813 0.580268 19.107 0.536175 19.4303C0.418594 19.7096 0.293663 19.9888 0.330408 20.3048C0.198129 20.5767 0.146687 20.8707 0.176082 21.1793C0.154036 21.4071 0.139338 21.6423 0.117291 21.8701C-0.00763872 22.2376 -0.176662 22.6491 0.470035 22.6491Z" fill="#ACBBBE"></path>
										<path d="M42.7846 24.8317C41.1531 24.7656 39.6393 25.2506 38.1989 25.9634C37.6771 26.1619 37.1921 26.4191 36.7879 26.8086C36.4278 26.9555 36.1412 27.1907 35.8987 27.492C35.5901 27.6463 35.3623 27.8815 35.1859 28.1681C34.8699 28.3959 34.62 28.6678 34.4657 29.0279C34.1644 29.3513 33.8558 29.6673 33.7749 30.1229C33.5765 30.314 33.4663 30.5491 33.4369 30.8284C33.2825 30.9533 33.2458 31.1297 33.2458 31.3207C32.9739 31.7396 32.8931 32.2173 32.8416 32.7685C34.0542 32.5921 35.2226 32.4304 36.3984 32.2467C37.7433 32.0409 39.1175 31.938 40.3227 31.2032C40.8445 30.9092 41.3883 30.652 41.7411 30.1302C42.0497 29.9024 42.2408 29.5938 42.3804 29.241C42.5715 28.9765 42.7405 28.7046 42.7699 28.3665C42.9389 28.1681 42.9904 27.9256 42.9904 27.6757C43.1667 27.47 43.1594 27.2201 43.1594 26.9702C43.299 26.8159 43.299 26.6248 43.277 26.4338C43.3725 26.0296 43.4827 25.6327 43.4386 25.2139C43.5121 24.626 43.0271 24.8464 42.7846 24.8317Z" fill="#ACBBBE"></path>
										<path d="M10.5453 37.5158C10.5527 37.3688 10.4939 37.2439 10.3689 37.163C10.3175 36.9426 10.2073 36.7588 10.0236 36.6266C9.97211 36.5678 9.92802 36.509 9.87658 36.4502C9.70021 36.1489 9.47239 35.899 9.1417 35.7521C9.00942 35.5683 8.84039 35.4434 8.61258 35.4067C8.42151 35.2082 8.17165 35.1201 7.90709 35.0833C6.44467 34.6056 5.08514 34.76 3.85788 35.7447C3.53454 35.8843 3.30672 36.1195 3.1377 36.4208C2.94663 36.5384 2.8217 36.7074 2.77026 36.9205C2.58654 37.0748 2.46896 37.2659 2.45426 37.5084C2.29258 37.6407 2.26319 37.8244 2.27054 38.0155C2.05742 38.2874 2.07947 38.596 2.10151 38.912C2.10151 39.0884 2.09416 39.2648 2.09416 39.4412C2.10151 39.5587 2.10886 39.6763 2.10886 39.7939C2.11621 39.8527 2.11621 39.9115 2.12356 39.9776C2.08682 40.2348 2.16765 40.4553 2.29993 40.6684C2.28523 40.8154 2.32933 40.9403 2.44691 41.0285C2.5057 41.2931 2.55714 41.5576 2.7923 41.734C2.95398 41.9177 3.1083 42.1014 3.26998 42.2925C3.38756 42.4101 3.51249 42.5203 3.63007 42.6379C3.72561 42.7996 3.85788 42.9098 4.04895 42.9539C4.22533 43.167 4.45314 43.2773 4.72505 43.314C6.2977 44.0562 8.12756 43.7843 9.37686 42.6232C9.66346 42.4395 9.89863 42.2117 10.0456 41.903C10.2293 41.7707 10.3543 41.6017 10.3836 41.3739C10.5821 41.1828 10.6849 40.9403 10.707 40.6684C10.8319 40.448 10.9275 40.2275 10.8834 39.9629C10.8907 39.8454 10.8981 39.7278 10.9054 39.6102C10.9054 39.4338 10.9128 39.2574 10.9128 39.0811C10.9348 38.7136 10.9716 38.3388 10.7437 38.0081C10.7364 37.8318 10.707 37.6554 10.5453 37.5158Z" fill="#ACBBBE"></path>
										<path d="M20.5911 43.8064C20.5838 43.7035 20.5764 43.5932 20.5691 43.4904C20.5838 43.2332 20.5985 42.9759 20.4148 42.7555C20.4148 42.5056 20.4221 42.2558 20.2384 42.0573C20.2384 41.8589 20.2237 41.6679 20.062 41.5282C20.0106 41.3959 19.9665 41.271 19.915 41.1387C19.893 40.955 19.8709 40.7713 19.7093 40.6537C19.7093 40.5067 19.6725 40.3818 19.5402 40.301C19.5329 40.1613 19.4961 40.0291 19.3639 39.9556C19.3345 39.7204 19.2095 39.5367 19.0332 39.3824C18.9744 39.2868 18.9082 39.1839 18.8494 39.0884C18.7613 38.7945 18.5922 38.5593 18.3497 38.3756C18.0705 38.1184 18.0043 37.6701 17.5855 37.5525C17.3944 37.5158 17.4679 37.1998 17.2327 37.2071C17.1225 37.1336 17.0196 37.0601 16.9094 36.9866C16.8359 36.7221 16.6742 36.5825 16.3876 36.6339C16.2259 36.4355 16.1377 36.1562 15.8364 36.1121C15.7482 35.9872 15.6454 35.899 15.4763 35.9578C15.3073 35.877 15.1897 35.6786 14.9619 35.7447C14.1829 35.2156 13.3305 34.8996 12.1547 34.7967C12.5956 35.3258 12.3384 35.8696 12.6691 36.2885C12.6764 36.3473 12.6838 36.4061 12.6838 36.4649C12.6544 36.7147 12.6985 36.9499 12.8308 37.1704C12.8455 37.2879 12.8602 37.4055 12.8675 37.5231C12.8455 37.7142 12.8528 37.8979 12.9851 38.0522C12.9998 38.1698 13.0145 38.2874 13.0292 38.3976C12.9924 38.7063 13.1027 38.9855 13.1982 39.2721C13.1541 39.5881 13.2864 39.86 13.3893 40.1466C13.3599 40.3524 13.4407 40.5141 13.5509 40.6831C13.5215 40.8889 13.6097 41.0506 13.7273 41.2122C13.7126 41.3592 13.7494 41.4841 13.8743 41.5723C13.9257 41.6899 13.9772 41.8075 14.0286 41.9251C14.1168 42.0941 14.205 42.2631 14.2932 42.4395C14.3667 42.682 14.521 42.851 14.7194 42.998C14.8737 43.336 15.153 43.5418 15.469 43.7035C15.5939 43.8945 15.7703 44.0121 15.9981 44.0489C16.1892 44.2399 16.417 44.3502 16.6889 44.3796C17.0122 44.6 17.3576 44.747 17.7618 44.725C18.3571 44.9969 18.9964 45.0336 19.6358 45.0777C20.8336 45.1512 20.9218 45.0336 20.6132 43.8284C20.5985 43.8211 20.5985 43.8137 20.5911 43.8064Z" fill="#ACBBBE"></path>
										<path d="M23.3837 3.99042C23.3911 4.29172 23.3544 4.60038 23.5675 4.85024C23.5675 5.04131 23.5601 5.23237 23.7218 5.372C23.7365 5.57042 23.7365 5.76884 23.9129 5.91582C23.9202 6.10689 23.9423 6.28326 24.1039 6.41554C24.1039 6.56251 24.1333 6.68744 24.2656 6.76828C24.3024 7.04754 24.4199 7.2827 24.6184 7.48112C24.6551 7.70893 24.7653 7.9 24.949 8.03963C25.0152 8.14251 25.0813 8.2454 25.1475 8.35563C25.2136 8.5614 25.3238 8.73777 25.5076 8.8627C25.559 8.92884 25.6178 9.00233 25.6692 9.06847C25.7721 9.18605 25.8677 9.30363 25.9705 9.42121C26.0808 9.53879 26.191 9.65637 26.3086 9.77395C26.4335 9.89154 26.5511 10.0091 26.676 10.1193C26.823 10.3472 27.0141 10.5235 27.2713 10.6191C27.455 10.8616 27.6975 11.0233 27.9768 11.1261C28.2266 11.376 28.5353 11.523 28.866 11.6332C29.2261 11.9566 29.7037 12.0374 30.1373 12.1623C30.5121 12.2726 31.0045 12.6033 31.2764 12.302C31.5189 12.03 31.225 11.5377 31.1221 11.1482C31.1147 11.0894 31.1074 11.0233 31.1 10.9645C31.0486 10.6705 30.9971 10.3839 30.9457 10.09C30.9604 9.84009 30.9677 9.59758 30.8134 9.37712C30.7987 9.26688 30.784 9.1493 30.7693 9.03907C30.762 8.98028 30.762 8.92149 30.7546 8.85535C30.784 8.60549 30.7399 8.37768 30.615 8.15721C30.6003 8.03963 30.5856 7.92205 30.5783 7.80447C30.6003 7.6134 30.5856 7.42968 30.446 7.27535C30.4313 7.15777 30.4092 7.04754 30.3945 6.92996C30.3431 6.75358 30.2917 6.57721 30.2402 6.40084C30.2696 6.19507 30.1741 6.0334 30.0638 5.87172C30.0932 5.57042 29.8581 5.39405 29.7184 5.17358C29.645 5.00456 29.5715 4.82819 29.498 4.65917C29.4539 4.60038 29.4098 4.53424 29.3583 4.47545C29.2334 4.15945 28.9983 3.93898 28.719 3.74791C28.5867 3.63768 28.4544 3.52745 28.3222 3.41721C28.109 3.10856 27.7196 3.08652 27.4403 2.8881C27.1831 2.66763 26.8744 2.5868 26.5584 2.53535C26.0734 2.23405 25.5076 2.21935 24.9711 2.11647C23.1633 1.76373 22.8693 2.08707 23.3103 3.90224C23.3397 3.94633 23.3617 3.96838 23.3837 3.99042Z" fill="#ACBBBE"></path>
										<path d="M21.2892 40.154C21.2819 39.6249 21.2745 39.0958 21.2672 38.574C21.2525 36.678 21.3407 34.782 21.179 32.886C21.2084 32.7831 21.2011 32.6729 21.157 32.57C21.1496 32.5186 21.1496 32.4598 21.1423 32.4083C21.1643 32.3422 21.1643 32.2834 21.1276 32.2099C21.1202 31.7984 21.1717 31.3795 20.9365 31.0047C20.6793 30.6814 20.9291 30.211 20.5984 29.9097C20.5691 29.5937 20.4515 29.3071 20.2237 29.072C20.1943 28.8515 20.084 28.6678 19.9077 28.5355C19.7901 28.3591 19.6651 28.1901 19.5476 28.0137C19.3051 27.7271 19.0552 27.4479 18.8127 27.1613C18.6878 26.9335 18.5114 26.7644 18.2762 26.6616C17.9749 26.3529 17.6663 26.0516 17.2253 25.9487C16.9093 25.6989 16.6007 25.4417 16.1745 25.3976C15.7997 25.1697 15.4028 25.0007 14.9472 25.0301C13.7714 24.6994 12.5809 24.6333 11.3683 24.8391C10.5232 24.8391 9.67808 24.817 8.84032 24.8391C6.56953 24.9052 4.29874 24.795 2.0353 25.0081C1.74869 25.0081 1.46209 24.986 1.18283 25.0007C-0.125262 25.0963 -0.13261 25.111 0.161343 26.4411C0.168692 26.5587 0.176041 26.6763 0.183389 26.7938C0.139296 27.2201 0.256878 27.6169 0.36711 28.0211C0.330366 28.2783 0.425901 28.4988 0.536133 28.7266C0.506738 28.9324 0.602273 29.094 0.712505 29.2557C0.756598 29.5203 0.80804 29.7775 1.01381 29.9685C1.17548 30.336 1.39595 30.6593 1.72664 30.8945C1.85892 31.115 2.02795 31.284 2.27046 31.3722C2.51297 31.6294 2.79957 31.8204 3.14497 31.9013C3.6006 32.2246 4.11502 32.3937 4.66618 32.4451C5.70971 32.8272 6.79734 32.9669 7.90701 32.9522C8.76683 33.1506 9.64134 33.1285 10.5159 33.1359C10.6187 33.1947 10.7363 33.2241 10.8539 33.202C10.8612 33.202 10.8686 33.202 10.8686 33.202C11.3977 33.2976 11.9268 33.3931 12.4559 33.4886C12.8895 33.7017 13.3525 33.8046 13.8302 33.8487C14.3005 34.0765 14.7782 34.275 15.2926 34.3558C15.6968 34.5322 16.101 34.7159 16.5051 34.8923C17.1445 35.3038 17.7912 35.7153 18.4305 36.1342C18.6731 36.362 18.9156 36.5972 19.1507 36.825C19.4079 37.1704 19.6651 37.5231 19.9224 37.8685C20.0252 38.0449 20.1281 38.2213 20.231 38.3976C20.4147 38.9268 20.6058 39.4559 20.7895 39.985C20.9071 40.5876 21.0247 41.1976 21.1423 41.8002C21.3701 41.2416 21.3407 40.6978 21.2892 40.154Z" fill="#ACBBBE"></path>
										<path d="M50.7949 0C50.6332 0.323349 50.6405 0.602604 50.7728 0.925953C50.9639 0.609953 50.8977 0.330697 50.7949 0Z" fill="#ACBBBE"></path>
										<path d="M51.2578 48.9506C51.3386 48.7595 51.493 48.5685 51.2578 48.3333C51.2578 48.5758 51.2578 48.7669 51.2578 48.9506Z" fill="#ACBBBE"></path>
										<path fill-rule="evenodd" clip-rule="evenodd" d="M131.165 11.2711H131.915C131.915 11.1519 131.915 11.0584 131.914 10.9649V2.56801C131.914 2.55052 131.915 2.53304 131.915 2.51557V2.51552V2.51547V2.51543V2.51538V2.51533V2.51528V2.51523V2.51519V2.51514V2.51509V2.51504V2.51499V2.51494V2.5149V2.51485V2.5148V2.51475V2.5147V2.51466V2.51461V2.51456V2.51451V2.51446V2.51441V2.51437V2.51432V2.51427V2.51422V2.51417V2.51413V2.51408V2.51403V2.51398V2.51393V2.51388V2.51384V2.51379V2.51374V2.51369V2.51364V2.5136V2.51355C131.915 2.46189 131.916 2.41037 131.91 2.35942C131.906 2.32037 131.89 2.27003 131.862 2.24947C131.712 2.13439 131.21 2.25769 131.113 2.42929L130.049 4.32109L130.037 4.34187L130.036 4.34374C129.087 6.03124 128.137 7.71897 127.187 9.40617C127.156 9.46122 127.123 9.51519 127.09 9.56925L127.053 9.6312C127.042 9.6276 127.032 9.62375 127.021 9.6199L127.005 9.61391L126.989 9.60859V2.22687H126.586C126.42 2.22738 126.336 2.22763 126.293 2.26993C126.249 2.3133 126.249 2.40088 126.249 2.57828V10.9485V11.2855C126.293 11.2855 126.333 11.2841 126.372 11.2828C126.452 11.28 126.523 11.2775 126.592 11.2886C126.893 11.3379 127.057 11.2074 127.212 10.929C128.175 9.20037 129.149 7.47798 130.122 5.75601C130.403 5.25986 130.684 4.76375 130.964 4.26753C130.994 4.21382 131.026 4.16092 131.058 4.10807L131.058 4.10786L131.058 4.10759L131.059 4.10725C131.077 4.07646 131.096 4.04568 131.114 4.01476L131.165 4.03017V11.2711ZM105.164 9.43655L105.058 9.6199C105.038 9.61271 105.016 9.60552 104.996 9.59935V9.29007C104.996 8.66164 104.996 8.0332 104.996 7.40477C104.996 5.83431 104.997 4.26384 104.995 2.69337C104.995 2.62259 104.996 2.56276 104.997 2.51214V2.51191V2.51171V2.51169V2.51167V2.51165V2.51163V2.51161V2.51159V2.51157V2.51155V2.51153V2.51151V2.5115V2.51148V2.51146V2.51145V2.51143V2.51142V2.5114V2.51139V2.51137V2.51136V2.51134V2.51133V2.51132V2.5113V2.51129V2.51128V2.51127V2.51125V2.51124V2.51123V2.51122V2.51121V2.5112V2.51119V2.51118V2.51117V2.51116V2.51115V2.51114V2.51113V2.51112C105 2.37436 105.002 2.30517 104.968 2.2694C104.933 2.23278 104.862 2.23118 104.717 2.22795C104.668 2.22687 104.611 2.2256 104.545 2.22277C104.31 2.21249 104.237 2.28236 104.238 2.53822C104.244 4.57213 104.244 6.60552 104.244 8.63914V8.63917V8.6392V8.63923V8.63925V8.63928V8.63931V8.63934V8.63937V8.6394V8.63943V8.63945V8.63948V8.63951V8.63954V8.63957V8.6396V8.63963V8.63966V8.63968V8.63971V8.63974V8.63977V8.6398V8.63983V8.63986V8.63988V8.63991V8.63994V8.63997V8.64V8.64003V8.64006V8.64009V8.64012V8.64015V8.64017V8.6402V8.64023V8.64026V8.64029V8.64032V8.64035V8.66378C104.243 9.43797 104.243 10.2122 104.244 10.9865C104.244 11.0468 104.247 11.1071 104.251 11.1736L104.251 11.1737L104.251 11.1739C104.253 11.2093 104.255 11.2466 104.256 11.2865C104.291 11.2865 104.324 11.2852 104.354 11.2839C104.416 11.2813 104.47 11.279 104.523 11.2886C104.87 11.3523 105.061 11.1982 105.24 10.8755C106.176 9.18705 107.126 7.50693 108.076 5.82697L108.078 5.82314L108.08 5.82005L108.081 5.81769L108.082 5.81607L108.083 5.81482L108.084 5.81357L108.084 5.81268L108.085 5.8118L108.085 5.81128L108.085 5.81113L108.085 5.81061L108.086 5.8101L108.086 5.80995L108.086 5.8098L108.086 5.80964L108.086 5.80949L108.086 5.80934L108.086 5.80919L108.086 5.80904L108.086 5.80889L108.086 5.80874C108.379 5.29165 108.671 4.77457 108.963 4.25726C108.994 4.20305 109.026 4.15012 109.059 4.09709L109.059 4.09673C109.077 4.06746 109.095 4.03816 109.113 4.0086C109.122 4.01219 109.13 4.01553 109.139 4.01887C109.148 4.02221 109.157 4.02555 109.166 4.02915V11.266H109.894V2.26592C109.341 2.14159 109.246 2.18372 108.981 2.65433L107.209 5.80649L105.437 8.95921C105.346 9.11873 105.255 9.27772 105.164 9.43655ZM87.9542 6.77673C87.9493 4.27266 89.868 2.24022 92.2473 2.22892C94.6227 2.21762 96.5561 4.24389 96.5629 6.75002C96.5698 9.26848 94.6628 11.2835 92.2728 11.2855C89.8759 11.2865 87.9591 9.28595 87.9542 6.77673ZM92.264 10.4994C94.2257 10.4994 95.8227 8.83075 95.8275 6.77571C95.8324 4.70833 94.2335 3.02319 92.2649 3.02319C90.2934 3.02319 88.6994 4.70319 88.7043 6.77468C88.7082 8.83281 90.3013 10.4994 92.264 10.4994ZM137.819 11.2691H138.562V11.2677C138.562 11.1481 138.562 11.054 138.564 10.9619V7.75495L138.564 6.58532V6.58524V6.58516V6.58507V6.58499V6.5849V6.58482V6.58473V6.58465V6.58456V6.58448V6.5844V6.58431V6.58423V6.58414V6.58406V6.58397V6.58389V6.58381V6.58372V6.58364V6.58355V6.58347V6.58338V6.5833V6.58321V6.58313V6.58305V6.58296V6.58288V6.58279V6.58271V6.58262V6.58254V6.58245V6.58237V6.58229V6.5822V6.58212V6.58203V6.58195C138.564 5.21723 138.563 3.85287 138.567 2.48787C138.568 2.306 138.535 2.22277 138.338 2.22483C137.934 2.22919 137.53 2.22781 137.126 2.22643C136.579 2.22456 136.032 2.22269 135.485 2.2351C134.245 2.26285 133.206 3.17118 132.957 4.40626C132.701 5.68039 133.283 6.91958 134.413 7.50116C134.452 7.52167 134.491 7.54331 134.535 7.56789C134.563 7.58395 134.594 7.60127 134.629 7.62035L133.068 11.2876C133.139 11.2876 133.205 11.2863 133.266 11.285C133.394 11.2825 133.505 11.2803 133.615 11.2907C133.812 11.3081 133.92 11.2434 134.004 11.0369C134.262 10.4046 134.529 9.77655 134.797 9.1485L134.797 9.1482L134.797 9.14783L134.797 9.14738L134.797 9.14683L134.798 9.14523C134.965 8.7517 135.133 8.35815 135.298 7.96354C135.36 7.81558 135.435 7.75187 135.593 7.75393C136.255 7.76215 136.917 7.76626 137.578 7.7529C137.786 7.74879 137.825 7.83305 137.823 8.02725C137.817 8.76332 137.818 9.49996 137.819 10.2368C137.819 10.4822 137.819 10.7277 137.819 10.9732V11.2691ZM137.737 3.03379C137.761 3.03698 137.788 3.0405 137.819 3.04376C137.819 3.98497 137.819 4.89639 137.82 5.80883C137.82 5.90338 137.82 5.99793 137.819 6.09247C137.818 6.31954 137.817 6.54661 137.822 6.77367C137.825 6.92163 137.769 6.97198 137.632 6.97095C137.379 6.96884 137.126 6.97072 136.872 6.97261C136.389 6.97621 135.905 6.97982 135.423 6.95554C134.386 6.90417 133.628 6.01536 133.648 4.93441C133.668 3.88736 134.484 3.04274 135.51 3.02527C136.024 3.01701 136.538 3.01917 137.053 3.02134C137.242 3.02214 137.431 3.02294 137.62 3.02321C137.657 3.02321 137.693 3.02795 137.737 3.03379ZM120.122 10.4841H124.333V10.1368V2.57317C124.333 2.22792 124.333 2.22484 124.65 2.22689C124.703 2.22721 124.749 2.22685 124.79 2.22652C124.941 2.22532 125.017 2.22472 125.055 2.26232C125.092 2.29989 125.09 2.37564 125.088 2.52709L125.088 2.52747C125.087 2.57238 125.086 2.62393 125.086 2.68311C125.088 4.54811 125.088 6.41311 125.087 8.27768L125.087 10.1419V10.483C125.216 10.4943 125.313 10.5026 125.432 10.5118V12.5761H124.701V11.2907H119.37V10.9536V2.58139V2.58134C119.37 2.39877 119.37 2.3097 119.415 2.26624C119.457 2.22484 119.54 2.22484 119.702 2.22484H120.121C120.122 4.99401 120.122 7.72825 120.122 10.4841ZM103.429 10.5169L103.078 10.483C103.078 10.3505 103.078 10.2395 103.079 10.1275V2.5896C103.079 2.56949 103.08 2.54919 103.08 2.52885V2.52876V2.52867V2.52858V2.5285V2.52841V2.52832V2.52824V2.52815V2.52807V2.52799V2.5279V2.52782V2.52774V2.52766V2.52758V2.5275V2.52742V2.52734V2.52726V2.52718V2.5271V2.52703V2.52695V2.52687V2.5268V2.52672V2.52665V2.52657V2.5265V2.52643V2.52636V2.52628V2.52621V2.52614V2.52607V2.52601V2.52594V2.52587C103.082 2.4682 103.084 2.41036 103.072 2.35635C103.061 2.30908 103.01 2.24024 102.974 2.23819C102.82 2.22991 102.667 2.231 102.501 2.23218C102.441 2.23261 102.379 2.23305 102.315 2.23305V10.4861H98.1178V10.1388L98.118 8.27022V8.25734C98.1181 6.39789 98.1183 4.53844 98.1169 2.67899C98.1167 2.61843 98.1176 2.56615 98.1183 2.52098C98.1206 2.37553 98.1217 2.30395 98.0865 2.2679C98.0523 2.23297 97.9841 2.23141 97.8496 2.22833C97.8011 2.22722 97.744 2.22591 97.6768 2.22277C97.4362 2.21147 97.3531 2.27004 97.3541 2.54747C97.3626 4.76464 97.3619 6.9818 97.3613 9.19897C97.3611 9.79003 97.3609 10.3811 97.3609 10.9721V11.2824H102.697V12.5823H103.429V10.5169ZM61.731 11.2858L61.8551 10.942C61.9474 10.6859 62.0346 10.4441 62.1232 10.2028L62.7214 8.57604L62.7215 8.57596L62.7215 8.57594L62.7215 8.57586L62.7216 8.57566L62.7216 8.5755C63.4606 6.56679 64.1995 4.55804 64.9318 2.54674C65.0178 2.31041 65.1176 2.19122 65.3728 2.22102C65.4664 2.23202 65.5685 2.22481 65.6691 2.2177C65.8409 2.20555 66.0085 2.19371 66.1219 2.27342C66.2536 2.36539 66.3157 2.57263 66.3763 2.77493C66.3976 2.8461 66.4188 2.91667 66.4427 2.98138C67.207 5.05536 67.9697 7.12995 68.7323 9.20468L68.7326 9.2054L68.7335 9.2079L69.4097 11.0474C69.4247 11.088 69.4365 11.1299 69.4512 11.182L69.4512 11.1821L69.4512 11.1822L69.4512 11.1823C69.4596 11.2119 69.4688 11.2448 69.4802 11.2827C69.4114 11.2827 69.3442 11.2838 69.2782 11.2848H69.2782H69.2782H69.2782H69.2782H69.2781H69.2781H69.2781H69.2781H69.2781H69.2781H69.2781H69.278H69.278H69.278H69.278H69.278H69.278H69.278H69.2779H69.2779H69.2779H69.2779H69.2779H69.2779H69.2779H69.2778H69.2778H69.2778H69.2778H69.2778H69.2778H69.2777H69.2777H69.2777H69.2777H69.2777H69.2777C69.1045 11.2874 68.9398 11.2899 68.777 11.2735C68.7174 11.2673 68.6479 11.1564 68.6186 11.0793L68.5731 10.9576C68.2948 10.2143 68.0167 9.47134 67.758 8.7201C67.6847 8.5074 67.58 8.455 67.3786 8.45705C66.1963 8.4663 65.013 8.46733 63.8306 8.45603C63.6331 8.45397 63.5402 8.51459 63.4708 8.71188C63.3324 9.10553 63.1879 9.49684 63.0434 9.88804L63.0434 9.88807L63.0434 9.88809L63.0434 9.8881L63.0434 9.88812L63.0434 9.88813L63.0433 9.88814L63.0433 9.88816L63.0433 9.88817L63.0433 9.88819C62.9008 10.274 62.7584 10.6597 62.6219 11.0474C62.5554 11.2355 62.4674 11.3064 62.2806 11.2879C62.1674 11.2776 62.0528 11.2801 61.9269 11.283C61.8648 11.2844 61.7999 11.2858 61.731 11.2858ZM65.6056 2.89713C65.0071 4.52883 64.4379 6.07937 63.857 7.66175H67.3649C67.0278 6.74753 66.6928 5.84055 66.3536 4.92244L66.3531 4.92106C66.1068 4.25463 65.8585 3.58233 65.6056 2.89713ZM118.294 11.288C118.359 11.2868 118.425 11.2855 118.494 11.2855C118.488 11.2657 118.482 11.2471 118.477 11.2294L118.465 11.1905L118.465 11.1904L118.465 11.1901C118.448 11.133 118.434 11.0856 118.417 11.0399C117.435 8.36632 116.453 5.6927 115.469 3.02012C115.443 2.94944 115.421 2.87152 115.399 2.79306C115.339 2.58521 115.278 2.37364 115.146 2.28338C115.019 2.19785 114.836 2.20944 114.65 2.22125C114.547 2.22774 114.443 2.23429 114.348 2.22481C114.124 2.20221 114.036 2.30702 113.959 2.5156C113.274 4.3982 112.582 6.27837 111.889 8.15891L111.881 8.18268C111.675 8.74013 111.47 9.29761 111.265 9.8552C111.146 10.18 111.028 10.5058 110.906 10.8424L110.905 10.8439L110.904 10.849L110.903 10.8506L110.745 11.2865C110.806 11.2865 110.864 11.2846 110.918 11.2827H110.919H110.919H110.919H110.919C111.031 11.2788 111.132 11.2754 111.229 11.2906C111.483 11.3317 111.585 11.2095 111.667 10.969C111.813 10.5432 111.969 10.1216 112.124 9.69999L112.124 9.69984L112.125 9.69967C112.247 9.36855 112.369 9.03745 112.487 8.70437C112.551 8.52147 112.638 8.45674 112.827 8.45777C114.027 8.46701 115.227 8.46701 116.426 8.45777C116.614 8.45674 116.7 8.52045 116.765 8.7054C117.046 9.50379 117.34 10.296 117.639 11.0872C117.67 11.1663 117.757 11.268 117.826 11.2763C117.977 11.2939 118.13 11.291 118.294 11.288ZM115.79 6.06615L116.381 7.66349H112.871L113.336 6.39704C113.755 5.25444 114.17 4.12186 114.586 2.98929C114.597 2.98767 114.608 2.98633 114.619 2.98497C114.629 2.98376 114.64 2.98253 114.65 2.98107C115.022 3.98731 115.394 4.99355 115.769 6.00736L115.775 6.0254L115.79 6.06615ZM77.7015 4.1884C77.6106 4.1884 77.5228 4.18966 77.4375 4.19088C77.2239 4.19393 77.0253 4.19678 76.8282 4.17915C76.7577 4.17271 76.6895 4.10559 76.6252 4.04223C76.6075 4.0248 76.5901 4.00766 76.573 3.99214C75.5452 3.05813 74.3687 2.7735 73.0808 3.21328C71.7919 3.65306 70.988 4.61482 70.6947 6.00301C70.3367 7.69431 71.1621 9.38869 72.6711 10.147C74.1292 10.8807 75.9344 10.4809 76.9172 9.11023C77.2468 8.6499 77.594 8.6684 78.0184 8.69614C77.8834 9.8182 75.9413 11.1982 74.4646 11.2855C72.1713 11.4211 70.3172 9.72572 69.9309 7.58436C69.5515 5.47589 70.7054 3.29343 72.6544 2.52176C74.7482 1.69358 76.8018 2.72521 77.7015 4.1884ZM82.7839 11.2721C84.6361 11.4211 86.6594 10.2189 87.079 8.68381C87.0252 8.68381 86.974 8.68555 86.9247 8.68723C86.8225 8.6907 86.7283 8.6939 86.6359 8.68073C86.3758 8.64271 86.2233 8.75368 86.0687 8.97768C84.8943 10.6865 82.6088 11.005 81.0099 9.69798C79.4413 8.4146 79.1978 5.9917 80.476 4.37438C81.759 2.7509 84.0865 2.5495 85.5661 3.96645C85.818 4.20771 86.0717 4.19742 86.3401 4.18652C86.4718 4.18118 86.6071 4.17569 86.7474 4.1997C85.8301 2.71699 83.8087 1.74598 81.7825 2.48579C79.8706 3.18451 78.6854 5.21798 78.9416 7.4066C79.1763 9.40719 80.8779 11.119 82.7839 11.2721ZM139.319 18.2429C139.379 18.2906 139.437 18.3348 139.494 18.3777C139.613 18.4671 139.723 18.5509 139.822 18.6487C140.622 19.444 140.916 20.4109 140.575 21.5186C140.242 22.5996 139.504 23.2346 138.428 23.4134C138.274 23.439 138.115 23.4462 137.959 23.4473C137.159 23.4495 136.359 23.4491 135.559 23.4486C135.239 23.4485 134.92 23.4483 134.6 23.4483H134.362C134.361 23.4234 134.359 23.3996 134.357 23.3767V23.3765V23.3764V23.3764V23.3763V23.3762C134.354 23.3207 134.35 23.2696 134.35 23.2181C134.35 22.3624 134.35 21.5066 134.35 20.6509V20.6372C134.35 18.6421 134.35 16.6469 134.346 14.6517C134.346 14.4657 134.389 14.4071 134.574 14.4082C135.162 14.4129 135.75 14.4122 136.338 14.4116C136.896 14.4109 137.454 14.4103 138.013 14.4143C139.183 14.4236 140.092 15.3812 140.082 16.5896C140.077 17.1897 139.854 17.6973 139.452 18.1206C139.427 18.1461 139.401 18.1695 139.371 18.1964L139.371 18.1964C139.355 18.2106 139.338 18.2258 139.319 18.2429ZM136.076 22.6583H136.076C136.809 22.6668 137.533 22.6751 138.255 22.6386C139.123 22.5944 139.807 21.871 139.932 20.9987C140.104 19.8016 139.249 18.7474 138.073 18.7289C137.582 18.7212 137.091 18.7223 136.601 18.7235H136.601H136.601H136.601H136.6H136.6H136.6H136.6H136.6H136.6H136.6H136.6H136.6H136.6H136.6H136.6H136.6H136.6H136.599H136.599H136.599H136.599H136.599H136.599H136.599H136.599H136.599H136.599H136.599H136.599H136.599H136.599H136.599H136.598C136.174 18.7244 135.75 18.7254 135.325 18.7207C135.143 18.7186 135.095 18.7751 135.095 18.9642C135.101 19.8293 135.101 20.6943 135.1 21.5594V21.5624C135.1 21.8512 135.099 22.1401 135.099 22.429C135.1 22.476 135.103 22.523 135.107 22.5761C135.108 22.5997 135.11 22.6244 135.111 22.6509C135.433 22.6509 135.754 22.6546 136.072 22.6583H136.072H136.072H136.073H136.073H136.073H136.073H136.073H136.073H136.073H136.073H136.074H136.074H136.074H136.074H136.074H136.074H136.074H136.074H136.074H136.075H136.075H136.075H136.075H136.075H136.075H136.075H136.075H136.076H136.076H136.076H136.076ZM136.656 17.9428C136.778 17.9428 136.899 17.9432 137.021 17.9435C137.325 17.9443 137.629 17.9452 137.932 17.9408C138.075 17.9387 138.222 17.9284 138.36 17.8915C138.991 17.7219 139.399 17.09 139.328 16.4118C139.255 15.7193 138.714 15.2127 138.003 15.2035C137.467 15.1962 136.93 15.1971 136.394 15.1981C136.021 15.1987 135.648 15.1994 135.274 15.1973C135.135 15.1963 135.096 15.2487 135.097 15.3894C135.102 16.1734 135.104 16.9564 135.096 17.7404C135.095 17.912 135.156 17.948 135.303 17.9449C135.62 17.9398 135.939 17.9409 136.257 17.9419L136.529 17.9427L136.656 17.9428ZM133.587 18.9601C133.596 16.4683 131.673 14.4236 129.309 14.4143C126.935 14.4051 124.991 16.4231 124.981 18.9056C124.972 21.4025 126.881 23.4308 129.257 23.4473C131.631 23.4637 133.577 21.4477 133.587 18.9601ZM125.73 18.8974C125.742 16.8588 127.348 15.1932 129.294 15.2024C131.273 15.2106 132.856 16.8948 132.844 18.9765C132.833 21.0079 131.22 22.6684 129.268 22.6602C127.303 22.652 125.717 20.9658 125.73 18.8974ZM61.731 18.9257C61.7359 16.4411 63.6741 14.4128 66.0436 14.4149C68.4112 14.4169 70.3417 16.4504 70.3397 18.9411C70.3378 21.4308 68.4034 23.454 66.029 23.4478C63.6546 23.4427 61.7261 21.4133 61.731 18.9257ZM66.0505 15.203C64.0956 15.1927 62.4918 16.8635 62.483 18.9164C62.4752 20.9705 64.0614 22.6505 66.0192 22.6607C67.9809 22.671 69.5867 21.0085 69.5945 18.9586C69.6033 16.8881 68.022 15.2133 66.0505 15.203ZM113.485 23.4483C115.862 23.4586 117.788 21.4456 117.795 18.9467C117.802 16.458 115.89 14.4266 113.53 14.4153C111.15 14.403 109.201 16.4262 109.19 18.92C109.179 21.4004 111.112 23.438 113.485 23.4483ZM109.948 18.92C109.961 16.8567 111.553 15.1952 113.51 15.2024C115.48 15.2096 117.064 16.8855 117.057 18.9559C117.049 21.0089 115.448 22.6684 113.485 22.6612C111.526 22.654 109.935 20.9709 109.948 18.92ZM103.528 23.4483C103.457 23.4483 103.389 23.4496 103.322 23.4508L103.322 23.4508C103.156 23.4538 103.001 23.4567 102.849 23.4391C102.781 23.4308 102.695 23.3301 102.665 23.2521C102.361 22.4465 102.063 21.6388 101.773 20.8281C101.722 20.6822 101.657 20.6298 101.507 20.6298C100.269 20.636 99.0313 20.636 97.7932 20.6298C97.6504 20.6288 97.5888 20.6791 97.5389 20.8178C97.3872 21.2402 97.2321 21.6613 97.077 22.0823L97.0768 22.0828L97.0763 22.0842C96.9317 22.4768 96.787 22.8695 96.6451 23.2634C96.5962 23.399 96.5375 23.4627 96.3918 23.4524C96.2593 23.4426 96.1259 23.4448 95.9818 23.4471C95.9154 23.4482 95.8467 23.4493 95.7747 23.4493C95.8416 23.2676 95.905 23.0944 95.9669 22.925L95.9699 22.917L95.9706 22.915C96.0216 22.7756 96.0717 22.6388 96.1219 22.502L96.716 20.8896L96.717 20.8867C97.4872 18.7966 98.2575 16.7063 99.0234 14.6147C99.0802 14.4595 99.1476 14.3999 99.3051 14.4112C99.5271 14.4267 99.751 14.4297 99.973 14.4102C100.157 14.3938 100.233 14.4688 100.297 14.6435C100.664 15.6573 101.037 16.6689 101.41 17.6803C101.541 18.0343 101.671 18.3882 101.802 18.7423L102.624 20.9756L103.445 23.2048C103.467 23.261 103.486 23.318 103.51 23.3941L103.528 23.4483ZM100.455 17.2554L100.454 17.2532L100.442 17.2192L100.432 17.1927C100.173 16.494 99.9136 15.7927 99.6503 15.0812C99.0577 16.6923 98.4846 18.2511 97.9027 19.8345H101.41C101.089 18.9687 100.773 18.1138 100.455 17.2554ZM84.9256 22.655V19.1008C86.411 19.1008 87.875 19.1008 89.3497 19.0998V18.3148H84.9334V15.2004H85.1808H87.8339L88.1244 15.2006C88.4794 15.2012 88.8343 15.2017 89.1893 15.1952C89.2461 15.1942 89.3487 15.1315 89.3517 15.0914C89.364 14.9315 89.3623 14.7699 89.3607 14.6053V14.6052C89.3601 14.5478 89.3595 14.49 89.3595 14.4318H84.1843V23.4339H89.3478V22.655H84.9256ZM83.1731 23.4401H82.4485C82.4471 23.4067 82.4452 23.3743 82.4433 23.3425C82.44 23.285 82.4367 23.2295 82.4367 23.1739C82.4358 20.6 82.4348 18.025 82.4407 15.4511C82.4407 15.2558 82.3957 15.1952 82.203 15.1962C81.2875 15.2031 80.3719 15.2021 79.4568 15.2011H79.4566H79.4564H79.4562H79.456H79.4558H79.4556H79.4554H79.4552H79.4551H79.4549H79.4547H79.4545H79.4543H79.4541H79.4539H79.4537H79.4536H79.4534H79.4532H79.453H79.4528H79.4526H79.4524H79.4522H79.452H79.4519H79.4513H79.4512H79.451H79.4509H79.4507H79.4506H79.4504H79.4503H79.4501H79.45H79.4498H79.4497H79.4495H79.4494H79.4492H79.4491H79.449H79.4488H79.4487H79.4485H79.4484H79.4482H79.4481H79.4479H79.4478H79.4476H79.4475H79.4473C79.1212 15.2007 78.7952 15.2004 78.4693 15.2004H78.2375V23.4318H77.505V14.4287H83.1721C83.1731 17.429 83.1731 20.4253 83.1731 23.4401ZM90.9379 23.436V19.9249C91.0386 19.9249 91.109 19.9249 91.1804 19.9239C91.3956 19.9239 91.6107 19.9244 91.8258 19.9249C92.2987 19.926 92.7713 19.9271 93.2439 19.9229C94.6951 19.9095 95.8637 18.6693 95.8608 17.1516C95.8579 15.6453 94.6912 14.4236 93.237 14.4143C92.7819 14.4113 92.3266 14.4117 91.8713 14.4121C91.3834 14.4125 90.8955 14.4129 90.4079 14.4092C90.2426 14.4082 90.1986 14.4606 90.1986 14.6311C90.202 16.6401 90.2021 18.6491 90.2021 20.658C90.2022 21.5189 90.2022 22.3798 90.2025 23.2407C90.2025 23.2864 90.2067 23.3316 90.211 23.3766L90.211 23.3767C90.2128 23.3965 90.2147 23.4162 90.2162 23.436H90.9379ZM90.9555 19.1111V15.1891C91.08 15.1891 91.2028 15.1886 91.3245 15.1881H91.3247H91.3248H91.3249H91.325H91.3251H91.3252H91.3252H91.3253H91.3254H91.3255H91.3256H91.3257H91.3258H91.3258H91.3259H91.326H91.3261H91.3262H91.3263H91.3264H91.3265H91.3265H91.3266H91.3267H91.3268H91.3269H91.327H91.3271C91.5908 15.187 91.8494 15.1859 92.1085 15.1901C92.2396 15.1921 92.3711 15.1916 92.5026 15.1911H92.5026H92.5026H92.5027H92.5027H92.5027H92.5027H92.5027H92.5027H92.5028H92.5028H92.5028H92.5028H92.5028H92.5028H92.5029H92.5029H92.5029H92.5029H92.5029H92.5029H92.503H92.503H92.503H92.503H92.503H92.503C92.8569 15.1899 93.2109 15.1886 93.5588 15.2343C94.4809 15.3566 95.145 16.2628 95.1078 17.2801C95.0736 18.2213 94.3186 19.07 93.4189 19.1142C92.8601 19.1416 92.2998 19.1382 91.7395 19.1347C91.5006 19.1333 91.2618 19.1318 91.023 19.1327C91.0107 19.1327 90.9984 19.1277 90.9826 19.1214L90.967 19.1152L90.9555 19.1111ZM118.674 14.4194L118.674 14.4193C118.717 14.4168 118.757 14.4143 118.797 14.4143L119.259 14.4138C120.028 14.4128 120.798 14.4118 121.568 14.4143C123.222 14.4205 124.419 15.8611 124.202 17.5812C124.039 18.8769 122.915 19.9075 121.638 19.9229C121.152 19.9286 120.666 19.9274 120.18 19.9261C119.972 19.9255 119.763 19.9249 119.555 19.9249H119.319V23.435H118.595C118.596 20.4408 118.596 17.4455 118.596 14.4236C118.623 14.4224 118.649 14.4209 118.674 14.4194ZM119.376 19.1235L119.376 19.1235L119.376 19.1235C119.408 19.1293 119.437 19.1348 119.467 19.1348C119.652 19.135 119.838 19.1362 120.023 19.1374L120.024 19.1374H120.024H120.024H120.024H120.024H120.024H120.024H120.025H120.025H120.025H120.025H120.025H120.025H120.025H120.025H120.025H120.025H120.025H120.025H120.025H120.025H120.025H120.026H120.026H120.026H120.026C120.553 19.1407 121.081 19.144 121.608 19.1266C121.869 19.1173 122.146 19.0577 122.385 18.9478C123.195 18.5748 123.626 17.6551 123.446 16.7561C123.268 15.8662 122.514 15.2076 121.631 15.1922C121.128 15.1835 120.624 15.1855 120.12 15.1874H120.12H120.12H120.12H120.12H120.12H120.12H120.12H120.12H120.12H120.12H120.12H120.12H120.12H120.119H120.119H120.119H120.119H120.119H120.119H120.119H120.119H120.119H120.119H120.119H120.119C119.903 15.1883 119.687 15.1891 119.471 15.1891C119.441 15.1891 119.412 15.1933 119.379 15.1979C119.363 15.2002 119.347 15.2025 119.329 15.2045C119.328 16.5125 119.328 17.8103 119.328 19.1153C119.345 19.1176 119.361 19.1206 119.376 19.1235ZM71.2124 14.4194H71.2123C71.1879 14.4209 71.1628 14.4224 71.1367 14.4236C71.1367 17.4465 71.1367 20.4418 71.1377 23.4349H71.8604V19.9249H72.1176C72.3467 19.9246 72.5759 19.9256 72.8051 19.9266H72.8053C73.2636 19.9287 73.7218 19.9307 74.18 19.9218C75.6939 19.8941 76.8576 18.5562 76.7676 17.0242C76.6777 15.4963 75.5452 14.4184 74.0852 14.4143C73.1688 14.4122 72.2515 14.4133 71.3352 14.4143C71.2949 14.4143 71.2546 14.4168 71.2124 14.4194ZM71.9166 19.1236L71.9165 19.1236L71.9165 19.1236L71.9164 19.1236C71.9014 19.1208 71.8852 19.1179 71.8672 19.1152V15.2045C71.8843 15.2024 71.9008 15.2 71.9168 15.1977L71.9169 15.1977L71.917 15.1977C71.9556 15.1921 71.9914 15.187 72.0266 15.187C72.2405 15.187 72.4544 15.1862 72.6684 15.1853L72.6691 15.1853C73.1688 15.1834 73.6686 15.1815 74.1683 15.1901C75.0523 15.2065 75.8132 15.8713 75.9843 16.756C76.1594 17.6613 75.7271 18.5789 74.9174 18.9477C74.6778 19.0577 74.402 19.1162 74.1399 19.1255C73.6123 19.143 73.0837 19.1397 72.5551 19.1363H72.5551H72.555H72.555H72.5549H72.5549H72.5548H72.5548H72.5547H72.5547H72.5546H72.5545H72.5545H72.5544H72.5544H72.5543H72.5543H72.5542H72.5542H72.5541H72.5541H72.554H72.554H72.5539H72.5538C72.3686 19.1352 72.1834 19.134 71.9983 19.1337C71.9727 19.1337 71.9471 19.1291 71.9166 19.1236ZM106.75 23.438H106.006V15.1922H103.764V14.4246L103.817 14.4212C103.869 14.4178 103.92 14.4143 103.972 14.4143C104.441 14.414 104.911 14.4142 105.381 14.4143H105.381H105.381H105.381H105.381H105.381H105.381H105.381H105.381H105.381H105.381H105.381H105.381H105.381H105.382H105.382H105.382H105.382H105.382H105.382H105.382H105.382C106.51 14.4146 107.639 14.415 108.767 14.4092C108.955 14.4082 109.004 14.4729 108.991 14.6548C108.982 14.7707 108.984 14.8875 108.986 15.0131C108.987 15.07 108.988 15.1288 108.988 15.1901H106.749C106.75 17.9511 106.75 20.6873 106.75 23.438ZM80.83 30.6348C80.5972 30.0132 80.1953 29.5477 79.6252 29.185C80.077 28.7576 80.3401 28.2592 80.3792 27.6489C80.4594 26.4282 79.544 25.4037 78.3451 25.3883C77.7732 25.3809 77.2012 25.3819 76.6291 25.383H76.6287C76.0934 25.384 75.5581 25.385 75.023 25.3791C74.7893 25.376 74.7218 25.4438 74.7228 25.6925C74.729 27.8696 74.7285 30.0462 74.728 32.2231V32.2232V32.2232V32.2233V32.2234V32.2235V32.2236V32.2236V32.2237V32.2238V32.2239V32.224V32.224V32.2241V32.2242V32.2243V32.2244V32.2244V32.2245V32.2246V32.2247V32.2248V32.2258L74.7277 34.0082V34.2856C74.7537 34.2886 74.7763 34.2915 74.7965 34.2942C74.8396 34.2999 74.8721 34.3041 74.9047 34.3041C75.262 34.3041 75.6193 34.3056 75.9765 34.307C76.8246 34.3104 77.6723 34.3139 78.5201 34.298C80.2569 34.264 81.4647 32.3323 80.83 30.6348ZM75.5422 33.5215L75.5324 33.5202L75.5025 33.5164L75.4817 33.514V29.6731C75.5016 29.6694 75.52 29.6653 75.5374 29.6615C75.5737 29.6534 75.6054 29.6464 75.6372 29.6464C75.9071 29.6464 76.177 29.6448 76.447 29.6433C77.1216 29.6396 77.7962 29.6358 78.4702 29.6556C79.367 29.6823 80.1073 30.3851 80.2354 31.275C80.3684 32.1977 79.8892 33.0762 79.055 33.403C78.8683 33.4759 78.66 33.5191 78.4605 33.5222C77.7433 33.5323 77.0255 33.5312 76.3076 33.5301C76.0809 33.5297 75.8541 33.5294 75.6274 33.5294C75.6013 33.5294 75.5752 33.5259 75.5422 33.5215ZM75.5704 28.8589C75.5436 28.8562 75.515 28.8534 75.4836 28.8511V26.1682H76.2044C76.4195 26.1682 76.6347 26.1678 76.8499 26.1674C77.3343 26.1665 77.8189 26.1657 78.303 26.1692C79.0727 26.1744 79.6487 26.7539 79.6477 27.5153C79.6477 28.2767 79.0746 28.8603 78.3069 28.8665C77.6541 28.8719 77.0013 28.8703 76.3485 28.8688C76.1309 28.8683 75.9134 28.8678 75.6958 28.8675C75.6554 28.8675 75.6154 28.8635 75.5704 28.8589H75.5704H75.5704ZM102.718 34.3052V33.9969C102.718 33.3826 102.718 32.7683 102.718 32.1539V32.1538V32.1538C102.719 30.0038 102.72 27.8535 102.712 25.7038C102.711 25.4356 102.787 25.3688 103.028 25.3801C103.087 25.3827 103.138 25.3841 103.182 25.3854C103.327 25.3893 103.398 25.3913 103.433 25.4279C103.466 25.4635 103.465 25.5318 103.462 25.6664V25.6665C103.461 25.7132 103.459 25.768 103.459 25.8322C103.461 27.385 103.461 28.9373 103.461 30.4898C103.46 31.1111 103.46 31.7325 103.46 32.3539V32.6488C103.476 32.6529 103.493 32.657 103.508 32.6621L103.52 32.6463L103.539 32.6188L103.539 32.6188C103.565 32.5834 103.591 32.5478 103.613 32.509C104.542 30.8595 105.471 29.2093 106.399 27.559L106.399 27.5582L106.4 27.5573L106.4 27.5565L106.401 27.5556L106.401 27.5548L106.402 27.5539L106.402 27.5531L106.403 27.5522L106.403 27.5514L106.404 27.5505L106.404 27.5497L106.405 27.5488L106.405 27.548L106.406 27.5471L106.406 27.5463L106.407 27.5454L106.407 27.5446L106.408 27.5437L106.408 27.5428L106.409 27.542L106.411 27.5371L107.491 25.6174C107.604 25.4181 108.048 25.2814 108.233 25.4078C108.281 25.4407 108.297 25.5537 108.298 25.6298C108.301 26.3784 108.301 27.1263 108.301 27.8747V27.8747V27.8748V27.8749V27.8749V27.875V27.875V27.8751V27.8751V27.8752V27.8753V27.8753V27.8754V27.8754V27.8755V27.8755V27.8756V27.8757V27.8757V27.8758V27.8758V27.8759L108.301 28.326V33.9743V34.2908H107.575V27.1649C107.566 27.1608 107.556 27.1565 107.547 27.1521L107.547 27.1521L107.545 27.1511C107.536 27.1471 107.527 27.143 107.518 27.1392C107.502 27.1637 107.487 27.1882 107.471 27.2126C107.437 27.266 107.403 27.3195 107.371 27.3745C107.082 27.8868 106.792 28.3989 106.503 28.911L106.502 28.9135L106.501 28.9151C105.548 30.6008 104.595 32.2864 103.652 33.9774C103.509 34.2332 103.357 34.3555 103.078 34.3082C103.01 34.2966 102.94 34.2991 102.856 34.3021H102.856H102.856H102.856C102.814 34.3035 102.768 34.3052 102.718 34.3052ZM66.4887 27.1714L66.4895 27.17L66.5201 27.1787L66.5201 27.1788C66.5339 27.1826 66.5474 27.1864 66.5609 27.1906V34.2897H67.2973V33.9486V25.7562C67.2973 25.7361 67.2977 25.7159 67.2981 25.6957C67.2992 25.6385 67.3004 25.5812 67.2924 25.525C67.2865 25.4808 67.264 25.4212 67.2308 25.4017C67.0381 25.2855 66.6049 25.4181 66.4905 25.6215C65.85 26.7594 65.2098 27.8973 64.5695 29.0352C63.9292 30.1733 63.2888 31.3113 62.6482 32.4494C62.6169 32.5049 62.5847 32.5604 62.5526 32.6159L62.5044 32.6991C62.4947 32.6961 62.485 32.6927 62.4753 32.6894L62.4751 32.6894C62.4653 32.686 62.4555 32.6827 62.4458 32.6796V25.4017H61.7299V34.3051C61.7769 34.3051 61.8222 34.3034 61.8663 34.3018H61.8664H61.8665H61.8666H61.8667H61.8668H61.8669H61.867H61.8671H61.8672H61.8673H61.8674H61.8674H61.8675H61.8676H61.8677H61.8678H61.8679H61.8679H61.868H61.8681H61.8681H61.8681H61.8681H61.8681H61.8681H61.8681H61.8681H61.8682H61.8682H61.8682H61.8682H61.8682H61.8682H61.8682H61.8682H61.8682H61.8682H61.8682H61.8682H61.8682C61.9618 34.2983 62.0497 34.295 62.1358 34.3082C62.3812 34.3462 62.5113 34.2353 62.6335 34.0144C63.3441 32.7363 64.0627 31.4641 64.7815 30.1915L64.7843 30.1864C64.9707 29.8565 65.1571 29.5264 65.3434 29.1963C65.7244 28.5208 66.1064 27.8464 66.4885 27.1719L66.4887 27.1714ZM116.688 32.6909L116.69 32.6874L116.691 32.6859C116.959 32.2118 117.227 31.7377 117.494 31.2626C118.023 30.3209 118.553 29.3792 119.083 28.4375L119.09 28.4251C119.622 27.4783 120.155 26.5314 120.688 25.5845C120.783 25.415 121.281 25.2835 121.42 25.4099C121.472 25.4571 121.477 25.5794 121.477 25.6667C121.479 26.7762 121.479 27.885 121.479 28.9942V28.9942V28.9943V28.9944V28.9945V28.9945V28.9946V28.9947V28.9948V28.9948V28.9949V28.995V28.9951V28.9951V28.9952V28.9953V28.9954V28.9954V28.9955V28.9956L121.479 29.8272V33.9619V34.2856H120.733V27.1638C120.725 27.1613 120.716 27.159 120.707 27.1567C120.698 27.1543 120.689 27.152 120.681 27.1495C120.654 27.1951 120.628 27.2404 120.601 27.2856C120.562 27.3536 120.522 27.4215 120.483 27.4906L119.843 28.6238L119.842 28.6256C118.83 30.418 117.818 32.2101 116.814 34.0071C116.686 34.2353 116.549 34.3462 116.298 34.3092C116.217 34.2968 116.135 34.2997 116.044 34.3029C116 34.3045 115.954 34.3062 115.904 34.3062C115.903 34.2764 115.901 34.2483 115.9 34.2212C115.896 34.1585 115.893 34.1016 115.893 34.0441C115.892 33.2769 115.893 32.5097 115.893 31.7426V31.7194C115.893 29.7039 115.893 27.6887 115.887 25.6729C115.886 25.4201 115.973 25.3739 116.183 25.3821C116.248 25.3844 116.304 25.3853 116.352 25.386C116.493 25.3881 116.564 25.3892 116.599 25.425C116.633 25.4608 116.632 25.5313 116.628 25.672C116.627 25.7209 116.626 25.7782 116.626 25.8455C116.628 27.3979 116.628 28.9502 116.627 30.5025C116.627 31.1244 116.627 31.7463 116.627 32.3682V32.6724C116.649 32.6765 116.668 32.6837 116.688 32.6909ZM122.3 29.858C122.3 32.3159 124.205 34.3051 126.556 34.3041C128.908 34.3031 130.799 32.3128 130.795 29.8447C130.791 27.3837 128.879 25.379 126.543 25.3862C124.205 25.3924 122.299 27.4022 122.3 29.858ZM126.545 33.5304C124.615 33.5273 123.044 31.8781 123.046 29.8539C123.048 27.8132 124.621 26.1651 126.562 26.1672C128.498 26.1702 130.068 27.8307 130.062 29.8714C130.057 31.8915 128.479 33.5335 126.545 33.5304ZM109.861 33.5191H114.008V25.3873C114.068 25.3873 114.126 25.3868 114.183 25.3863C114.34 25.3849 114.486 25.3837 114.632 25.3935C114.674 25.3966 114.732 25.4675 114.747 25.5188C114.761 25.5695 114.759 25.6253 114.756 25.6812V25.6812C114.755 25.7036 114.754 25.7259 114.754 25.748V33.1965V33.5119C114.873 33.5243 114.968 33.5335 115.087 33.5448V35.5742H114.378V34.3134H109.146V25.3996H109.861V33.5191ZM86.9362 34.2836V33.5284C85.4703 33.5284 84.0327 33.5284 82.5854 33.5294V30.0204H86.9264V29.2364H82.5873V26.1621H86.9479C86.9479 26.106 86.9462 26.0527 86.9445 26.0015L86.9445 26.0014C86.9409 25.8957 86.9377 25.7986 86.9509 25.7038C86.9871 25.4336 86.8785 25.377 86.6379 25.3791C85.1309 25.3904 83.623 25.3894 82.116 25.3791C81.8813 25.377 81.8148 25.4459 81.8158 25.6935C81.8219 27.8724 81.8214 30.0519 81.8209 32.231L81.8206 34.0144V34.2836H86.9362ZM73.1992 30.0358H69.0508V34.2826H68.3173V25.4007H69.0312V29.2261H73.1777V25.3883C73.2376 25.3883 73.2958 25.3878 73.3525 25.3873C73.5094 25.386 73.6555 25.3847 73.8006 25.3945C73.8436 25.3976 73.8974 25.4664 73.9179 25.5178C73.9325 25.5541 73.9294 25.5981 73.9263 25.6418L73.9263 25.6419C73.9251 25.66 73.9238 25.6781 73.9238 25.6956V34.0175V34.2867H73.1982C73.1992 32.8841 73.1992 31.4764 73.1992 30.0358ZM136.472 34.2939H137.2C137.2 34.1624 137.2 34.0534 137.202 33.9435C137.202 33.1741 137.202 32.4046 137.202 31.6351V31.635V31.6349C137.203 29.7079 137.203 27.7806 137.201 25.8538C137.201 25.7834 137.202 25.7238 137.203 25.6732V25.6729V25.6726V25.6724V25.6721V25.672V25.6718V25.6716V25.6715V25.6714V25.6713C137.206 25.5317 137.208 25.4615 137.174 25.4255C137.139 25.3891 137.068 25.3876 136.925 25.3846C136.874 25.3835 136.814 25.3822 136.743 25.3791C136.51 25.3688 136.46 25.4562 136.462 25.6853C136.469 26.5437 136.468 27.4022 136.467 28.2606L136.467 28.2892C136.466 28.5083 136.466 28.7275 136.466 28.9466C136.466 29.0101 136.462 29.0735 136.458 29.139L136.458 29.1394C136.456 29.1672 136.454 29.1954 136.453 29.2241H132.315V28.9251C132.315 28.617 132.316 28.3091 132.316 28.0011V28.001V28.0009V28.0008V28.0007V28.0006V28.0005V28.0004V28.0003V28.0002V28V27.9999V27.9998V27.9997V27.9996C132.316 27.281 132.317 26.5625 132.314 25.8435C132.314 25.775 132.315 25.7169 132.316 25.6674C132.319 25.5284 132.32 25.4584 132.286 25.4228C132.251 25.3867 132.18 25.3857 132.037 25.3837C131.99 25.383 131.935 25.3823 131.871 25.3801C131.662 25.3729 131.574 25.4161 131.575 25.6699C131.581 27.6856 131.581 29.7012 131.581 31.7169C131.581 32.492 131.581 33.2671 131.581 34.0421C131.581 34.0953 131.584 34.1484 131.587 34.2008L131.587 34.2162L131.589 34.2518L131.591 34.2857H132.321V30.042H136.472V34.2939ZM143.774 34.2949H143.056V32.17V30.0348H138.914V34.2867H138.185C138.183 34.255 138.181 34.2232 138.179 34.1913C138.176 34.1332 138.172 34.0748 138.172 34.0164C138.172 33.277 138.172 32.5376 138.172 31.7981V31.7901C138.172 29.7579 138.172 27.7257 138.166 25.6935C138.165 25.4459 138.231 25.3688 138.466 25.3791C138.534 25.3822 138.591 25.3835 138.639 25.3846C138.775 25.3877 138.843 25.3892 138.877 25.4242C138.912 25.4599 138.911 25.5305 138.908 25.6732C138.907 25.7223 138.906 25.7799 138.907 25.8476C138.909 26.5668 138.909 27.286 138.908 28.0052C138.908 28.3135 138.908 28.6219 138.908 28.9302V29.2302C138.935 29.2319 138.96 29.2336 138.985 29.2352C139.052 29.2397 139.11 29.2436 139.169 29.2436C139.536 29.2439 139.903 29.2436 140.27 29.2432H140.27H140.27H140.27H140.27C141.109 29.2424 141.948 29.2416 142.787 29.2487C143.002 29.2508 143.064 29.1881 143.061 28.961C143.055 28.3663 143.055 27.7716 143.055 27.1769C143.055 26.667 143.056 26.1571 143.052 25.6473C143.051 25.452 143.095 25.3596 143.296 25.3801C143.4 25.3907 143.506 25.3882 143.616 25.3856C143.667 25.3844 143.719 25.3832 143.773 25.3832C143.774 28.3651 143.774 31.314 143.774 34.2949ZM95.2391 27.3171C95.3228 27.316 95.4089 27.3149 95.498 27.3149C94.6414 25.9031 92.6464 24.8982 90.6191 25.6391C88.7395 26.3265 87.5289 28.4062 87.8232 30.4879C88.1186 32.5779 89.8182 34.223 91.7594 34.299C93.5402 34.3679 95.5332 33.1307 95.8256 31.7415C95.7934 31.7415 95.7616 31.7428 95.7303 31.744C95.6639 31.7467 95.5996 31.7492 95.5372 31.7395C95.1978 31.685 94.9895 31.8217 94.7744 32.1196C93.8052 33.4606 92.085 33.8973 90.6221 33.2211C89.1698 32.5492 88.3014 30.9246 88.5694 29.2857C88.8041 27.8523 89.5884 26.8454 90.9008 26.3737C92.1916 25.9093 93.372 26.1908 94.4047 27.1372L94.4125 27.1446L94.4261 27.1577L94.4457 27.1771C94.5062 27.237 94.5715 27.3017 94.6375 27.3067C94.8321 27.3222 95.0282 27.3197 95.2391 27.3171ZM145.329 25.3842V28.8408C145.354 28.8422 145.379 28.8437 145.402 28.8452L145.437 28.8475C145.501 28.8518 145.557 28.8555 145.613 28.8562C145.835 28.8569 146.056 28.8557 146.278 28.8546L146.278 28.8546H146.278H146.278H146.279H146.279H146.279H146.279H146.279H146.279H146.279H146.279H146.279C146.693 28.8524 147.106 28.8503 147.519 28.8603C149.134 28.9004 150.309 30.3564 150.075 32.0138C149.896 33.2807 148.83 34.2805 147.61 34.3C146.935 34.311 146.26 34.3089 145.585 34.3068C145.315 34.306 145.045 34.3051 144.775 34.3051C144.745 34.3051 144.715 34.3015 144.675 34.2967L144.635 34.2919C144.623 34.2905 144.609 34.2891 144.595 34.2877V34.0123L144.595 32.2304C144.596 30.0508 144.596 27.8708 144.59 25.6914C144.589 25.4407 144.66 25.3523 144.892 25.3821C144.983 25.3931 145.074 25.3903 145.174 25.3873C145.223 25.3858 145.275 25.3842 145.329 25.3842ZM146.026 33.5209H146.027C146.607 33.5246 147.177 33.5282 147.745 33.5068C147.978 33.4985 148.223 33.3896 148.432 33.2673C149.164 32.8378 149.513 31.9614 149.314 31.1198C149.11 30.2608 148.382 29.6515 147.508 29.634C147.008 29.6239 146.508 29.6268 146.007 29.6296C145.848 29.6306 145.689 29.6315 145.53 29.632C145.487 29.632 145.444 29.64 145.402 29.648L145.402 29.648L145.38 29.6521C145.369 29.6541 145.358 29.656 145.347 29.6577V33.5181C145.576 33.5181 145.802 33.5195 146.026 33.5209ZM153.146 25.3846C153.075 25.3859 153.001 25.3873 152.923 25.3873C152.939 25.4231 152.952 25.4555 152.965 25.4853L152.966 25.4874L152.966 25.4876C152.998 25.563 153.023 25.6223 153.051 25.6801C153.187 25.9628 153.322 26.2455 153.457 26.5282L153.457 26.5289C153.863 27.3774 154.268 28.2256 154.68 29.0709C154.759 29.2333 154.761 29.3576 154.681 29.521C154.084 30.7528 153.493 31.988 152.902 33.2233L152.902 33.2238L152.902 33.2243L152.902 33.2248L152.901 33.2252L152.901 33.2257L152.901 33.2262L152.901 33.2267L152.9 33.2272L152.9 33.2276L152.9 33.2281L152.514 34.0339C152.489 34.0864 152.466 34.1404 152.439 34.2042L152.438 34.2045C152.425 34.2354 152.411 34.2686 152.395 34.3051C152.462 34.3051 152.525 34.3033 152.585 34.3015H152.585C152.709 34.2979 152.819 34.2947 152.926 34.3092C153.149 34.3391 153.255 34.2384 153.351 34.0339C153.799 33.0789 154.256 32.1279 154.714 31.1772L154.714 31.1764L154.714 31.1759L154.715 31.1753L154.715 31.1748L154.715 31.1742L154.715 31.1737L154.716 31.1731L154.716 31.1726L154.716 31.1718L154.717 31.1708L154.718 31.1682C154.832 30.9312 154.946 30.6941 155.06 30.4571C155.086 30.4015 155.116 30.348 155.151 30.2827L155.151 30.2825C155.167 30.2536 155.184 30.2225 155.203 30.1879C155.225 30.2307 155.244 30.2676 155.262 30.3009C155.291 30.3562 155.315 30.4016 155.337 30.4478C155.499 30.7864 155.662 31.125 155.824 31.4636L155.825 31.466C156.249 32.3486 156.672 33.2311 157.098 34.112C157.134 34.187 157.207 34.2877 157.269 34.2938C157.434 34.3093 157.6 34.3068 157.779 34.3042H157.779C157.822 34.3036 157.865 34.3029 157.91 34.3025L157.956 34.3022L158 34.3021L157.971 34.2374L157.933 34.1538C157.895 34.067 157.862 33.9922 157.827 33.9188L157.395 33.0152L157.393 33.0109L157.393 33.0106L157.393 33.0103L157.393 33.0099L157.393 33.0096L157.392 33.0093L157.392 33.009L157.392 33.0087L157.392 33.0083L157.392 33.008C156.84 31.8513 156.288 30.6948 155.73 29.5415C155.641 29.3587 155.649 29.221 155.735 29.0432C156.151 28.1877 156.562 27.3286 156.973 26.4696C157.099 26.205 157.226 25.9405 157.352 25.676C157.376 25.6263 157.397 25.575 157.422 25.5131L157.451 25.4423L157.475 25.3852L157.425 25.3855L157.373 25.3862C157.344 25.3868 157.316 25.3874 157.289 25.3881L157.289 25.3881H157.289H157.289C157.164 25.3911 157.055 25.3937 156.946 25.3811C156.734 25.3565 156.63 25.452 156.539 25.6483C156.282 26.2008 156.017 26.7484 155.752 27.2959L155.751 27.2959L155.751 27.296L155.751 27.2961L155.751 27.2961L155.751 27.2962L155.751 27.2963L155.751 27.2963L155.751 27.2964L155.751 27.2965L155.751 27.2965C155.651 27.5033 155.551 27.7101 155.451 27.917C155.392 28.0396 155.332 28.1609 155.262 28.3007L155.203 28.4205C155.182 28.3823 155.164 28.349 155.148 28.3189C155.114 28.2568 155.088 28.2083 155.064 28.1585L154.784 27.5748C154.467 26.9143 154.15 26.2536 153.829 25.5948C153.79 25.5126 153.709 25.4047 153.639 25.3965C153.481 25.3783 153.321 25.3813 153.146 25.3846ZM99.6806 34.2918H98.9354V26.1631H96.7145C96.7145 26.0966 96.7134 26.0328 96.7123 25.9709C96.7094 25.8127 96.7067 25.6675 96.7243 25.525C96.7312 25.4695 96.8534 25.3924 96.9238 25.3904C97.278 25.3811 97.6322 25.3823 97.9868 25.3834C98.1051 25.3838 98.2234 25.3842 98.3418 25.3842C98.6225 25.3842 98.9032 25.3847 99.1839 25.3852H99.184H99.1841H99.1842H99.1843H99.1844H99.1845H99.1846H99.1847C99.9876 25.3866 100.791 25.388 101.593 25.3781C101.834 25.375 101.914 25.4551 101.887 25.6976C101.876 25.7884 101.879 25.8806 101.881 25.9846C101.883 26.0348 101.884 26.0877 101.884 26.1446H99.6816C99.6806 28.8788 99.6806 31.572 99.6806 34.2918ZM150.857 34.2918H151.579C151.579 31.313 151.579 28.365 151.58 25.3842L151.556 25.3843L151.532 25.3846C151.501 25.3851 151.47 25.386 151.439 25.3868C151.341 25.3897 151.248 25.3924 151.156 25.3811C150.923 25.3523 150.851 25.4387 150.852 25.6904C150.858 27.868 150.858 30.045 150.857 32.2224L150.857 34.0061V34.2918ZM119.552 46.471H118.811V39.5609L118.769 39.5517C118.66 39.8126 118.552 40.0747 118.444 40.3367C117.631 42.3249 116.817 44.3132 116.007 46.3025C115.956 46.4268 115.906 46.4946 115.762 46.4895C115.616 46.4844 115.531 46.4587 115.465 46.2973C114.795 44.6377 114.119 42.981 113.443 41.3241C113.229 40.7981 113.014 40.272 112.8 39.7459C112.78 39.6976 112.757 39.6513 112.706 39.6082V46.4659H111.958V46.248V37.7771C111.958 37.564 111.961 37.5634 112.113 37.5412L112.139 37.5374L112.177 37.5315C112.577 37.4668 112.754 37.6364 112.91 38.0289C113.6 39.7656 114.31 41.4933 115.021 43.2211L115.021 43.2212L115.021 43.2212L115.021 43.2213L115.021 43.2213L115.021 43.2214L115.021 43.2215L115.021 43.2215C115.234 43.7405 115.447 44.2594 115.66 44.7787C115.673 44.8103 115.687 44.8417 115.704 44.8805L115.704 44.8806C115.716 44.9073 115.73 44.9375 115.746 44.9739C115.775 44.9052 115.801 44.8438 115.825 44.7864C115.855 44.714 115.883 44.6478 115.91 44.5814L116.267 43.7083L116.268 43.7048C117.085 41.7035 117.902 39.7021 118.714 37.699C118.767 37.5696 118.83 37.5285 118.957 37.5367C119.032 37.5415 119.108 37.5407 119.184 37.5398C119.269 37.5388 119.354 37.5378 119.439 37.5449C119.479 37.548 119.524 37.6117 119.548 37.6579C119.561 37.6801 119.558 37.7112 119.555 37.7423L119.554 37.7519C119.553 37.7582 119.553 37.7645 119.552 37.7707L119.552 37.7823V46.2532V46.471ZM92.6141 46.4689V43.4932C92.6425 43.4911 92.6658 43.4886 92.6863 43.4864C92.7152 43.4834 92.7383 43.4809 92.7617 43.4809C94.2071 43.4943 95.4755 42.2541 95.5733 40.6748C95.6613 39.2599 94.656 37.8357 93.328 37.6127C92.9139 37.5437 92.489 37.5433 92.0657 37.543C91.966 37.5429 91.8665 37.5428 91.7672 37.5418C91.5344 37.5398 91.2948 37.5706 91.0689 37.6281C89.6881 37.9826 88.7874 39.3647 88.941 40.8731C89.0876 42.3065 90.2651 43.4347 91.6606 43.4799C91.6995 43.4811 91.7381 43.4833 91.7806 43.4858C91.8108 43.4876 91.843 43.4895 91.8787 43.4912V46.4689H92.6141ZM92.6662 42.7002L92.6661 42.7002C92.6512 42.6989 92.6341 42.6974 92.6141 42.6959V42.4678V38.5601C92.6141 38.3115 92.6141 38.3115 92.8478 38.3238C93.9754 38.3813 94.8614 39.3862 94.833 40.5761C94.8046 41.7536 93.8727 42.7062 92.7481 42.7051C92.7242 42.7051 92.7008 42.7031 92.6662 42.7002ZM91.8591 38.3207V42.7082C90.9975 42.7072 90.3404 42.3517 89.9296 41.5821C89.516 40.8052 89.5531 40.013 90.0284 39.2753C90.4587 38.6084 91.0816 38.3073 91.8591 38.3207ZM104.872 42.0085C104.876 44.4725 102.983 46.4772 100.647 46.4813C98.3017 46.4864 96.3977 44.4848 96.3977 42.0147C96.3977 39.5445 98.3007 37.5367 100.64 37.5377C102.972 37.5398 104.868 39.5424 104.872 42.0085ZM100.63 45.6953C102.566 45.7014 104.133 44.0625 104.142 42.0219C104.151 39.9884 102.589 38.331 100.654 38.3187C98.7251 38.3063 97.1399 39.9586 97.1331 41.9879C97.1272 44.0379 98.685 45.6901 100.63 45.6953ZM66.6187 46.473H67.3473C67.3483 46.4467 67.3496 46.4221 67.3509 46.3988L67.3509 46.3987L67.3509 46.3987C67.3531 46.3574 67.3551 46.3201 67.3551 46.284C67.3554 45.4706 67.3555 44.6572 67.3556 43.8437C67.3559 41.8095 67.3562 39.7751 67.359 37.7412C67.359 37.584 67.3218 37.5357 67.1673 37.5357C65.4227 37.5408 63.6771 37.5408 61.9324 37.5357C61.774 37.5346 61.731 37.5819 61.731 37.7484C61.7342 40.116 61.7341 42.4843 61.734 44.8521L61.7339 46.2727V46.4659H62.4781V46.2141L62.4782 44.9323V44.9322V44.9321V44.9321V44.932C62.4783 42.7955 62.4785 40.6584 62.4752 38.5221C62.4752 38.369 62.5055 38.3145 62.663 38.3155C63.5328 38.3198 64.4031 38.3196 65.2732 38.3195C65.6601 38.3194 66.047 38.3193 66.4339 38.3197C66.4733 38.3197 66.5133 38.3234 66.5603 38.3278C66.5786 38.3295 66.5979 38.3313 66.6187 38.333V46.473ZM82.7243 46.4823C82.6557 46.4823 82.5894 46.4831 82.5248 46.4839C82.3561 46.4859 82.1989 46.4878 82.0426 46.4752C81.9869 46.471 81.9136 46.3899 81.8901 46.3272C81.582 45.5031 81.2779 44.677 80.9826 43.8478C80.9366 43.7183 80.873 43.6906 80.7557 43.6916C79.5274 43.6947 78.3001 43.6957 77.0718 43.6906C76.9437 43.6906 76.8811 43.7296 76.8342 43.8601C76.688 44.2691 76.5388 44.6767 76.3897 45.0844C76.2406 45.4921 76.0914 45.8997 75.9452 46.3087C75.8973 46.4423 75.8367 46.4967 75.6968 46.4865C75.5624 46.4764 75.4275 46.4784 75.2831 46.4805H75.283C75.2205 46.4814 75.1563 46.4823 75.0895 46.4823C75.1431 46.3349 75.1952 46.191 75.2464 46.0494L75.2464 46.0493C75.3373 45.798 75.4255 45.5541 75.5149 45.311L76.1432 43.597L76.1449 43.5924L76.1453 43.5914C76.8607 41.6402 77.5761 39.689 78.2874 37.7361C78.3451 37.5789 78.4165 37.5234 78.5739 37.5336C78.7969 37.548 79.0218 37.548 79.2448 37.5336C79.3993 37.5244 79.4756 37.5737 79.5333 37.732C79.9478 38.8792 80.3674 40.0241 80.7869 41.1688C80.9216 41.5364 81.0563 41.9039 81.1909 42.2715C81.4351 42.9385 81.6796 43.6055 81.9241 44.2725C82.1681 44.9382 82.4121 45.6039 82.6558 46.2696C82.6712 46.313 82.6851 46.3574 82.7021 46.4118L82.7243 46.4823ZM78.9299 38.2642C78.9212 38.2631 78.9125 38.2619 78.9038 38.261C78.8969 38.2602 78.8899 38.2595 78.8829 38.2591C78.3187 39.8014 77.7544 41.3427 77.1843 42.8994H80.6364C80.0623 41.3406 79.4961 39.8024 78.9299 38.2642ZM106.374 46.4679V42.997H106.375C106.469 42.997 106.537 42.997 106.607 42.9959C106.841 42.9956 107.075 42.9961 107.309 42.9966L107.312 42.9966H107.312H107.312C107.749 42.9976 108.185 42.9986 108.622 42.9939C109.925 42.9805 111.016 41.9797 111.196 40.6398C111.413 39.0246 110.227 37.5593 108.673 37.5398C108.173 37.5332 107.674 37.5342 107.174 37.5352H107.174H107.174H107.174C106.732 37.5361 106.29 37.5369 105.848 37.5326C105.676 37.5305 105.643 37.5912 105.643 37.7587C105.646 40.1222 105.646 42.4851 105.646 44.8485L105.646 46.2655V46.4679H106.374ZM106.414 42.2006L106.397 42.1977L106.377 42.1945C106.377 40.8967 106.377 39.6144 106.376 38.3176C106.384 38.317 106.391 38.3163 106.398 38.3155C106.408 38.3144 106.418 38.3133 106.428 38.3122L106.428 38.3122C106.463 38.3081 106.497 38.3043 106.531 38.3043C106.72 38.304 106.91 38.3032 107.099 38.3025C107.604 38.3005 108.109 38.2986 108.614 38.3053C109.484 38.3166 110.214 38.9146 110.422 39.7757C110.63 40.6326 110.266 41.544 109.516 41.9602C109.284 42.0886 109.009 42.1832 108.75 42.1934C108.193 42.2167 107.635 42.2131 107.077 42.2095H107.076C106.871 42.2081 106.666 42.2068 106.462 42.2068C106.448 42.2068 106.433 42.2042 106.414 42.2006ZM74.1739 46.4832L74.1734 46.4832C74.0055 46.4856 73.8488 46.4879 73.6931 46.4731C73.6393 46.4679 73.5718 46.3652 73.5483 46.2933C73.338 45.6458 73.1316 44.996 72.9253 44.3466L72.9252 44.3462L72.7269 43.7224C72.2492 42.2208 71.7706 40.7203 71.2919 39.2198L71.2916 39.2188L71.2903 39.2147C71.2779 39.1757 71.2628 39.1375 71.2442 39.0906C71.2334 39.0633 71.2214 39.033 71.2081 38.9979C71.0839 39.3832 70.9705 39.7356 70.8571 40.0891L70.725 40.5036C70.1079 42.4399 69.4911 44.3754 68.8777 46.3128C68.8366 46.4443 68.778 46.4936 68.646 46.4854C68.5126 46.4769 68.3793 46.4787 68.2373 46.4806C68.174 46.4815 68.1091 46.4823 68.0416 46.4823L68.1194 46.2356C68.2054 45.9628 68.287 45.7039 68.3692 45.4456L68.8333 43.9894L68.8334 43.9891C69.4966 41.9091 70.1597 39.8292 70.817 37.7474C70.8707 37.5778 70.9451 37.5295 71.1074 37.5336L71.1319 37.5343C71.5329 37.5448 71.5364 37.5449 71.6668 37.9539L74.3307 46.32C74.3422 46.3517 74.3505 46.3851 74.3615 46.4291C74.3655 46.445 74.3698 46.4623 74.3747 46.4813C74.3057 46.4813 74.2389 46.4823 74.1739 46.4832ZM82.9407 38.1254C82.941 38.1831 82.9413 38.2422 82.9413 38.3032C83.0323 38.3032 83.0949 38.3032 83.1565 38.3022C83.3498 38.3022 83.5431 38.3021 83.7362 38.302C84.1225 38.3018 84.5087 38.3015 84.8952 38.3022C85.0381 38.3027 85.1041 38.2943 85.1343 38.3233C85.1657 38.3534 85.1583 38.4239 85.1583 38.5868V46.2398V46.4659H85.9035V38.3022H86.1098H87.8828C87.9893 38.3022 88.044 38.3022 88.0721 38.2749C88.1019 38.2459 88.1019 38.1864 88.1019 38.0638C88.1019 38.0317 88.1009 37.9995 88.1 37.9673C88.0979 37.8965 88.0958 37.8258 88.1038 37.7566C88.1234 37.585 88.0667 37.5316 87.8975 37.5326C86.6796 37.5381 85.4611 37.5376 84.243 37.537C83.8775 37.5369 83.5121 37.5367 83.1467 37.5367C83.1366 37.5367 83.1258 37.5357 83.1149 37.5347C83.089 37.5324 83.0629 37.53 83.045 37.5408C83.0049 37.5655 82.9482 37.6076 82.9462 37.6456C82.9389 37.8016 82.9398 37.9576 82.9407 38.1254Z" fill="#ACBBBE"></path>
									</svg>