<svg width="159" height="38" viewBox="0 0 159 38" fill="none" xmlns="http://www.w3.org/2000/svg">
										<path fill-rule="evenodd" clip-rule="evenodd" d="M0 37.4778V23.0404C6.0253 23.0328 11.8013 20.602 16.0591 16.2819C20.317 11.9618 22.7086 6.10572 22.7085 0H36.972L36.972 0.0123168H36.9723V17.9232C37.5971 17.4116 38.1976 16.8646 38.7706 16.2833C42.9227 12.0713 45.3005 6.39884 45.417 0.458344V0.0123168H45.4215C45.4215 0.00821131 45.4215 0.00410572 45.4215 0H59.6849C59.6847 0.184303 59.6832 0.368465 59.6804 0.552473V36.8852H45.417V29.5585C38.9609 34.6553 30.9789 37.4686 22.7088 37.4778V33.5691V29.5569C16.2529 34.6547 8.27047 37.4686 0 37.4778ZM67.8973 4.23735V12.7121H68.9103V5.44893V5.32745H68.9344L71.2431 10.6533H73.122L75.4457 5.32745H75.4668V5.44893V12.7121H76.4921V4.23735H74.8415L72.4516 9.67194H71.9375L69.5477 4.23735H67.8973ZM78.4497 10.9313C78.6179 11.296 78.8701 11.6271 79.1904 11.9042L79.208 11.88C79.6964 12.2834 80.3087 12.5548 80.9715 12.6615C81.6334 12.7682 82.3168 12.7055 82.939 12.481C83.5612 12.2565 84.0947 11.8799 84.4762 11.3967C84.8576 10.9135 85.0693 10.3446 85.0861 9.75869C85.0846 9.36595 84.9936 8.97733 84.8194 8.61502C84.6451 8.25277 84.3905 7.92393 84.0695 7.6473C83.7492 7.3707 83.3693 7.15173 82.952 7.00289C82.5339 6.85405 82.0867 6.77826 81.6349 6.77985C81.1839 6.78144 80.7368 6.86038 80.321 7.01216C79.9044 7.16394 79.5268 7.38559 79.2088 7.66443C78.8908 7.94335 78.6393 8.27395 78.4681 8.63741C78.2969 9.00095 78.2097 9.39018 78.212 9.783C78.2005 10.1759 78.2816 10.5666 78.4497 10.9313ZM79.4282 8.94233C79.5436 8.68213 79.7171 8.44463 79.9395 8.24352H79.9426C80.3982 7.85759 81.0081 7.64158 81.6441 7.64158C82.2793 7.64158 82.8901 7.85759 83.3449 8.24352C83.5673 8.44448 83.7408 8.68205 83.8555 8.94225C83.9701 9.20252 84.0244 9.48015 84.0137 9.75869C84.0236 10.0375 83.9686 10.3152 83.8532 10.5754C83.7378 10.8356 83.5642 11.0731 83.3418 11.2739C82.8832 11.655 82.274 11.8676 81.6403 11.8676C81.0066 11.8676 80.3974 11.655 79.9395 11.2739C79.7179 11.0721 79.5451 10.8345 79.4297 10.5745C79.3143 10.3146 79.2592 10.0373 79.2669 9.75869C79.2577 9.47999 79.3127 9.20245 79.4282 8.94233ZM86.8182 11.8778C86.5278 11.5951 86.3008 11.26 86.1509 10.8928C86.0019 10.5257 85.9323 10.1339 85.9484 9.74103C85.9369 9.35173 86.008 8.96419 86.1586 8.60133C86.3092 8.23848 86.5354 7.90765 86.8244 7.62839C87.1263 7.34628 87.4863 7.12555 87.883 6.97992C88.279 6.83428 88.7032 6.76687 89.1282 6.78187C89.554 6.79688 89.9713 6.89398 90.3551 7.06713C90.7388 7.24027 91.0805 7.48577 91.3587 7.78833C91.6079 8.08293 91.7944 8.4201 91.9075 8.78127H90.9444C90.8489 8.56946 90.7128 8.37599 90.5431 8.21089C90.3421 8.01925 90.1013 7.8692 89.8353 7.77045C89.5693 7.67169 89.2842 7.6264 88.9983 7.63745C88.7208 7.63193 88.4449 7.683 88.1896 7.78719C87.935 7.89145 87.7065 8.04624 87.5215 8.24108C87.1187 8.6475 86.8993 9.18548 86.9115 9.74103C86.8939 10.3001 87.1133 10.8428 87.5215 11.2501C87.7057 11.4415 87.9304 11.5942 88.1819 11.6982C88.4326 11.8023 88.7048 11.8552 88.9792 11.8537C89.2796 11.8676 89.5792 11.8185 89.8574 11.7099C90.1349 11.6013 90.3833 11.436 90.5844 11.2259C90.7655 11.0446 90.9062 10.8312 90.9987 10.5981H91.9618C91.7959 11.2166 91.4099 11.7631 90.868 12.1473C90.326 12.5315 89.661 12.7303 88.9822 12.7108C88.5802 12.7214 88.1796 12.6527 87.8066 12.5093C87.4336 12.3659 87.0973 12.1508 86.8182 11.8778ZM92.8217 6.77982V12.709L93.8903 12.7121V10.045H95.2265L97.5013 12.6965H98.8374L96.1682 9.56599L98.6364 6.77982H97.353L95.2158 9.15276H93.8796V6.77982H92.8217ZM99.6943 11.8916C99.4138 11.6191 99.1936 11.2936 99.0461 10.9352C98.8994 10.5767 98.829 10.1928 98.839 9.80685C98.8267 9.41388 98.8948 9.02251 99.04 8.65584C99.1852 8.28916 99.4046 7.95474 99.6851 7.67238C99.9657 7.38999 100.301 7.16548 100.673 7.01215C101.043 6.85883 101.442 6.77982 101.846 6.77982C102.249 6.77982 102.648 6.85883 103.019 7.01215C103.39 7.16548 103.726 7.38999 104.006 7.67238C104.287 7.95474 104.506 8.28916 104.652 8.65584C104.797 9.02251 104.865 9.41388 104.852 9.80685C104.838 10.3832 104.652 10.943 104.318 11.4185C103.983 11.8939 103.515 12.2645 102.969 12.4852C102.422 12.7059 101.822 12.7673 101.241 12.662C100.66 12.5566 100.122 12.289 99.6943 11.8916ZM100.354 8.2939C100.159 8.49111 100.006 8.72448 99.9045 8.98024C99.8036 9.236 99.7562 9.50897 99.7646 9.783C99.7562 10.057 99.8044 10.3298 99.9053 10.5855C100.006 10.8412 100.159 11.0747 100.354 11.2721C100.756 11.6466 101.29 11.8556 101.846 11.8556C102.402 11.8556 102.936 11.6466 103.337 11.2721C103.532 11.0738 103.683 10.8402 103.785 10.5848C103.885 10.3292 103.934 10.0568 103.927 9.783C103.935 9.50904 103.887 9.23631 103.786 8.98062C103.685 8.72494 103.532 8.49149 103.337 8.2939C102.938 7.91461 102.403 7.70234 101.846 7.70234C101.289 7.70234 100.753 7.91461 100.354 8.2939ZM106.573 6.78268V12.7113L109.629 12.7081C110.189 12.7407 110.74 12.5708 111.174 12.2324C111.358 12.076 111.503 11.8825 111.599 11.666C111.694 11.4494 111.739 11.2152 111.728 10.9803C111.731 10.7725 111.691 10.5662 111.61 10.373C111.548 10.2182 111.454 10.0774 111.331 9.95988C111.225 9.86761 111.11 9.78583 110.987 9.71573C110.896 9.66123 110.798 9.61812 110.695 9.58739C110.648 9.5708 110.598 9.56026 110.548 9.55605C110.592 9.55223 110.637 9.54275 110.679 9.52792C110.763 9.49803 110.842 9.45806 110.915 9.40891C111.014 9.34607 111.104 9.27017 111.181 9.18357C111.276 9.07113 111.348 8.94271 111.394 8.80481C111.452 8.63084 111.48 8.44907 111.479 8.26638C111.484 8.06458 111.443 7.86408 111.357 7.67948C111.272 7.49487 111.144 7.33075 110.984 7.19901C110.597 6.90511 110.11 6.75698 109.616 6.78268H106.573ZM109.544 9.21483H107.557V7.67169H109.544C110.164 7.67169 110.475 7.92523 110.475 8.44173C110.475 8.95815 110.164 9.21483 109.544 9.21483ZM109.606 11.8223H107.557V10.0443H109.606C109.904 10.0245 110.2 10.1078 110.439 10.2792C110.535 10.361 110.611 10.4622 110.659 10.5754C110.709 10.6886 110.731 10.8109 110.724 10.9333C110.731 11.0553 110.708 11.177 110.659 11.2897C110.61 11.4023 110.535 11.503 110.439 11.5844C110.201 11.7569 109.905 11.8413 109.606 11.8223ZM113.462 11.846C113.174 11.5668 112.949 11.2364 112.8 10.8742C112.65 10.5119 112.579 10.1251 112.59 9.73668C112.579 9.34814 112.649 8.96128 112.799 8.59896C112.949 8.23665 113.174 7.90628 113.462 7.62728C113.763 7.34554 114.122 7.12509 114.518 6.97965C114.914 6.83422 115.337 6.76689 115.761 6.78187C116.186 6.79685 116.603 6.89381 116.985 7.06672C117.368 7.23964 117.709 7.48481 117.988 7.78703C118.236 8.08056 118.421 8.41742 118.532 8.77837H117.571C117.477 8.56633 117.341 8.37309 117.17 8.2089C116.971 8.01727 116.73 7.86722 116.465 7.76861C116.2 7.67001 115.915 7.62492 115.63 7.63633C115.353 7.63082 115.078 7.68185 114.823 7.78589C114.569 7.88992 114.341 8.04448 114.157 8.23901C113.761 8.65102 113.551 9.19106 113.57 9.7457C113.553 10.3035 113.771 10.8453 114.176 11.2524C114.36 11.4434 114.584 11.5957 114.835 11.6996C115.085 11.8035 115.356 11.8564 115.63 11.8551C115.93 11.8692 116.229 11.8202 116.506 11.7119C116.783 11.6034 117.031 11.4382 117.232 11.2283C117.414 11.0488 117.555 10.8353 117.644 10.6015H118.605C118.501 10.9879 118.311 11.3493 118.048 11.6622C117.759 12.0009 117.391 12.2719 116.972 12.4539C116.553 12.6359 116.094 12.7238 115.633 12.7109C115.227 12.7189 114.823 12.646 114.449 12.497C114.075 12.3479 113.738 12.1261 113.462 11.846ZM119.465 6.77982V12.709L120.536 12.7121V10.045H121.872L124.142 12.6965H125.481L122.802 9.56599L125.276 6.77982H124.003L121.862 9.15276H120.525V6.77982H119.465ZM126.341 12.7121V6.77982H127.269V11.2275V11.3465H127.29L130.443 6.77982H131.497V12.7121H130.569V8.26447V8.14545H130.544L127.396 12.7121H126.341ZM133.216 6.65732V12.7121H134.268L137.42 8.05113H137.444V8.17259V12.7121H138.373V6.65732H137.317L134.167 11.3183H134.144V11.1968V6.65732H133.216ZM134.928 4.23735H134.058C134.051 4.44274 134.089 4.6471 134.168 4.83562C134.248 5.02414 134.366 5.19213 134.516 5.32745C134.881 5.6265 135.339 5.77668 135.804 5.74943C136.269 5.77748 136.73 5.62725 137.095 5.32745C137.249 5.19443 137.372 5.02742 137.454 4.83875C137.538 4.65008 137.579 4.44455 137.574 4.23735H136.695C136.699 4.33661 136.681 4.43546 136.643 4.5267C136.605 4.61796 136.548 4.6993 136.476 4.76482C136.284 4.91299 136.045 4.98349 135.807 4.96302C135.572 4.97976 135.34 4.90948 135.15 4.76482C135.078 4.6996 135.02 4.61839 134.981 4.52713C134.943 4.43587 134.925 4.33686 134.928 4.23735ZM67.8973 22.8817V16.9493H68.8264V21.3994V21.5185H68.8512L72.001 16.9493H73.054V22.8817H72.1249V18.4316V18.3125H72.1032L68.9534 22.8817H67.8973ZM74.773 16.9493V22.8817H75.7136V20.2712H78.9986V22.8817H79.9296V16.9493H78.9986V19.3812H75.7043V16.9493H74.773ZM81.6487 22.8817V16.9493H82.5805V19.3812H85.8734V16.9493H86.8052V22.8817H85.8734V20.2712H82.5805V22.8817H81.6487ZM88.7338 21.1044C88.8806 21.4628 89.1007 21.7883 89.3812 22.0611C89.8093 22.4585 90.3467 22.7261 90.9276 22.8315C91.5093 22.9369 92.1093 22.8755 92.6551 22.6547C93.2016 22.434 93.6702 22.0635 94.0042 21.588C94.339 21.1126 94.5248 20.5527 94.5393 19.9764C94.5515 19.5834 94.4835 19.1921 94.3383 18.8254C94.193 18.4587 93.9737 18.1243 93.6931 17.8419C93.4126 17.5596 93.077 17.3351 92.7056 17.1817C92.3348 17.0284 91.9358 16.9493 91.5322 16.9493C91.1294 16.9493 90.7304 17.0284 90.3589 17.1817C89.9882 17.3351 89.6518 17.5596 89.3721 17.8419C89.0915 18.1243 88.8721 18.4587 88.7269 18.8254C88.5809 19.1921 88.5129 19.5834 88.5259 19.9764C88.516 20.3622 88.587 20.746 88.7338 21.1044ZM89.5907 19.1496C89.6923 18.8938 89.8452 18.6604 90.0409 18.4634C90.4399 18.0842 90.975 17.8719 91.5322 17.8719C92.0895 17.8719 92.6253 18.0842 93.0243 18.4634C93.22 18.6604 93.3729 18.8938 93.4738 19.1496C93.5754 19.4054 93.6228 19.6784 93.6136 19.9525C93.6228 20.2266 93.5747 20.4995 93.4738 20.7554C93.3729 21.0111 93.22 21.2445 93.0243 21.4416C92.6253 21.8209 92.0895 22.0332 91.5322 22.0332C90.975 22.0332 90.4399 21.8209 90.0409 21.4416C89.8452 21.2445 89.6923 21.0111 89.5907 20.7554C89.4898 20.4995 89.4424 20.2266 89.4508 19.9525C89.4424 19.6784 89.4898 19.4054 89.5907 19.1496ZM96.2592 22.8817V16.9526H99.3091C99.8044 16.9251 100.293 17.0723 100.681 17.3661C100.842 17.4976 100.971 17.6618 101.056 17.8466C101.143 18.0313 101.184 18.2321 101.178 18.4341C101.18 18.6169 101.151 18.7988 101.092 18.9728C101.015 19.2233 100.844 19.4383 100.612 19.5773C100.539 19.6265 100.459 19.6664 100.375 19.6963C100.333 19.7133 100.289 19.7239 100.244 19.7277C100.295 19.7321 100.346 19.7415 100.395 19.7559C100.498 19.7872 100.596 19.8314 100.688 19.8874C100.806 19.9569 100.916 20.0377 101.017 20.1286C101.14 20.2471 101.235 20.389 101.296 20.5451C101.378 20.7372 101.418 20.9427 101.415 21.1497C101.425 21.3842 101.381 21.6181 101.285 21.8347C101.189 22.0512 101.045 22.245 100.862 22.4025C100.425 22.7397 99.8709 22.9084 99.3091 22.8754L96.2592 22.8817ZM97.2467 19.3832H99.2372C99.8617 19.3832 100.171 19.1263 100.171 18.6127C100.171 18.099 99.8717 17.8516 99.2464 17.8516H97.2559L97.2467 19.3832ZM97.2467 21.9922H99.2991C99.5988 22.0126 99.8961 21.928 100.135 21.7541C100.226 21.6691 100.297 21.5676 100.347 21.4558C100.396 21.344 100.421 21.2239 100.421 21.1026C100.421 20.9814 100.396 20.8614 100.347 20.7495C100.297 20.6377 100.226 20.5362 100.135 20.4512C99.8961 20.2773 99.5988 20.1926 99.2991 20.2131H97.2467V21.9922ZM102.277 19.92C102.254 20.7036 102.558 21.4641 103.123 22.0368C103.383 22.3066 103.698 22.5214 104.051 22.6669C104.404 22.8123 104.786 22.8851 105.171 22.8805C105.624 22.8938 106.075 22.7969 106.478 22.5992C106.772 22.4606 107.028 22.2586 107.225 22.0096L107.334 21.8493V22.7747H108.292V17.0502H107.334V17.9998L107.225 17.8304C107.022 17.5762 106.76 17.3693 106.458 17.2256C106.064 17.0329 105.624 16.9382 105.18 16.9504C104.794 16.9456 104.409 17.0192 104.054 17.1663C103.7 17.3133 103.383 17.5305 103.123 17.8032C102.558 18.3757 102.254 19.1363 102.277 19.92ZM103.258 19.9019C103.237 19.3451 103.447 18.8028 103.842 18.3898C104.032 18.2016 104.261 18.0519 104.513 17.9495C104.766 17.8473 105.038 17.7945 105.313 17.7945C105.589 17.7945 105.86 17.8473 106.113 17.9495C106.366 18.0519 106.594 18.2016 106.784 18.3898C107.179 18.8028 107.389 19.3451 107.369 19.9019C107.389 20.4586 107.179 21.0007 106.784 21.4138C106.594 21.602 106.366 21.7518 106.113 21.8541C105.86 21.9565 105.589 22.0092 105.313 22.0092C105.038 22.0092 104.766 21.9565 104.513 21.8541C104.261 21.7518 104.032 21.602 103.842 21.4138C103.447 21.0007 103.238 20.4586 103.258 19.9019ZM110.01 23.1514V16.9493H110.987V22.2209H114.189V16.9493H115.165V22.2209H116.027V24.5766H115.052V23.1514H110.01ZM116.886 16.9493V22.8817H117.941L121.093 18.3125H121.115V18.4316V22.8817H122.043V16.9493H120.989L117.836 21.5185H117.814V21.3994V16.9493H116.886ZM124.619 22.0611C124.339 21.7883 124.119 21.4628 123.971 21.1044C123.824 20.746 123.754 20.3622 123.763 19.9764C123.751 19.5834 123.819 19.1921 123.964 18.8254C124.11 18.4587 124.329 18.1243 124.609 17.8419C124.89 17.5596 125.226 17.3351 125.597 17.1817C125.968 17.0284 126.367 16.9493 126.77 16.9493C127.173 16.9493 127.572 17.0284 127.944 17.1817C128.314 17.3351 128.65 17.5596 128.931 17.8419C129.211 18.1243 129.43 18.4587 129.576 18.8254C129.722 19.1921 129.79 19.5834 129.777 19.9764C129.762 20.5527 129.576 21.1126 129.242 21.588C128.908 22.0635 128.439 22.434 127.893 22.6547C127.347 22.8755 126.747 22.9369 126.166 22.8315C125.584 22.7261 125.047 22.4585 124.619 22.0611ZM125.278 18.4634C125.083 18.6604 124.93 18.8938 124.829 19.1496C124.727 19.4054 124.68 19.6784 124.689 19.9525C124.68 20.2266 124.728 20.4995 124.829 20.7554C124.93 21.0111 125.083 21.2445 125.278 21.4416C125.677 21.8209 126.213 22.0332 126.77 22.0332C127.328 22.0332 127.863 21.8209 128.262 21.4416C128.457 21.2445 128.61 21.0111 128.711 20.7554C128.813 20.4995 128.86 20.2266 128.851 19.9525C128.86 19.6784 128.813 19.4054 128.712 19.1496C128.61 18.8938 128.457 18.6604 128.262 18.4634C127.863 18.0842 127.328 17.8719 126.77 17.8719C126.213 17.8719 125.677 18.0842 125.278 18.4634ZM131.497 16.9493V22.8817H132.438V20.2712H135.723V22.8817H136.654V16.9493H135.723V19.3812H132.428V16.9493H131.497ZM138.373 22.8817V16.9493H139.305V19.3812H142.598V16.9493H143.53V22.8817H142.598V20.2712H139.305V22.8817H138.373ZM145.249 16.9493V22.8796H147.815C148.461 22.9044 149.091 22.7028 149.582 22.3157C149.797 22.1414 149.969 21.927 150.087 21.6866C150.205 21.4462 150.266 21.1854 150.266 20.9217C150.266 20.6579 150.205 20.3972 150.087 20.1568C149.969 19.9165 149.797 19.702 149.582 19.5276C149.091 19.1405 148.461 18.939 147.815 18.9637H146.27V16.9493H145.249ZM147.815 21.9899H146.27V19.8377H147.815C148.193 19.8217 148.565 19.933 148.86 20.1511C148.978 20.248 149.072 20.3668 149.136 20.4995C149.201 20.6324 149.234 20.7762 149.234 20.9217C149.234 21.0672 149.201 21.211 149.136 21.3438C149.072 21.4766 148.978 21.5954 148.86 21.6924C148.563 21.9062 148.192 22.0122 147.815 21.9899ZM151.103 16.9493V22.8796H152.124V16.9493H151.103ZM153.843 22.8818V16.8303H154.771V21.3697V21.4912H154.793L157.945 16.8303H159V22.8818H158.072V18.3424V18.2208H158.047L154.895 22.8818H153.843ZM154.687 14.4071H155.566C155.563 14.5067 155.581 14.6058 155.619 14.6972C155.658 14.7885 155.715 14.8696 155.789 14.9346C155.984 15.0661 156.212 15.1361 156.445 15.1361C156.678 15.1361 156.906 15.0661 157.1 14.9346C157.174 14.8696 157.232 14.7885 157.27 14.6972C157.309 14.6058 157.327 14.5067 157.323 14.4071H158.202C158.21 14.6157 158.171 14.8234 158.09 15.0145C158.008 15.2056 157.886 15.3749 157.732 15.51C157.355 15.7864 156.905 15.9349 156.443 15.9349C155.981 15.9349 155.531 15.7864 155.155 15.51C155.001 15.3745 154.88 15.2049 154.799 15.0139C154.718 14.8229 154.68 14.6155 154.687 14.4071ZM67.8973 27.1191V33.0514L68.8128 33.0388V30.3703H69.9618L71.9141 33.0388H73.054L70.7591 29.9067L72.8812 27.1191H71.7929L69.9557 29.4933H68.8068V27.1191H67.8973ZM73.054 33.0514L74.7684 27.1191H77.3559L79.0704 33.0514H78.0156L76.6053 28.0086H75.5026L74.0956 33.0514H73.054ZM79.9296 30.085C79.9296 30.8623 80.2285 31.6133 80.7704 32.1986C81.0303 32.4716 81.3483 32.6889 81.7045 32.8357C82.0607 32.9827 82.4459 33.0557 82.835 33.0501C83.2891 33.0637 83.7393 32.9681 84.1436 32.7724C84.4318 32.6341 84.6825 32.4358 84.8767 32.1926L84.986 32.0326V32.9384H85.9461V27.2196H84.986V28.1707L84.8767 27.9985C84.6703 27.7471 84.4081 27.541 84.1085 27.3947C83.7133 27.2037 83.273 27.1093 82.8289 27.1199C82.4406 27.1151 82.0569 27.1887 81.7022 27.3355C81.3468 27.4824 81.0295 27.6992 80.7704 27.9714C80.2285 28.5568 79.9296 29.3077 79.9296 30.085ZM80.8927 30.079C80.8927 29.5227 81.0999 28.9841 81.4782 28.5572C81.6678 28.3694 81.8963 28.2199 82.1494 28.1177C82.4024 28.0156 82.6753 27.9629 82.9504 27.9629C83.2256 27.9629 83.4977 28.0156 83.7507 28.1177C84.0038 28.2199 84.2323 28.3694 84.4226 28.5572C84.8025 28.983 85.012 29.522 85.012 30.079C85.012 30.6359 84.8025 31.175 84.4226 31.6008C84.2315 31.7878 84.003 31.9367 83.75 32.0383C83.497 32.1399 83.2248 32.1924 82.9504 32.1924C82.6753 32.1924 82.4031 32.1399 82.1501 32.0383C81.8971 31.9367 81.6686 31.7878 81.4782 31.6008C81.0999 31.1739 80.8927 30.6353 80.8927 30.079ZM88.5427 32.2044C87.9778 31.6253 87.6652 30.8693 87.6652 30.085C87.6652 29.3007 87.9778 28.5447 88.5427 27.9655C88.8446 27.6842 89.2046 27.4639 89.6014 27.3187C89.9981 27.1734 90.4223 27.1062 90.8481 27.1211C91.2738 27.1361 91.692 27.2329 92.0757 27.4057C92.4594 27.5784 92.8018 27.8233 93.0801 28.1251C93.3308 28.4182 93.5181 28.7548 93.6297 29.1156H92.6658C92.5687 28.8992 92.4296 28.7021 92.2545 28.5345C92.0535 28.3434 91.812 28.1938 91.546 28.0952C91.28 27.9967 90.9941 27.9515 90.7082 27.9625C90.43 27.957 90.154 28.008 89.8987 28.112C89.6434 28.2159 89.4156 28.3703 89.2299 28.5647C88.8316 28.9751 88.6191 29.5152 88.639 30.07C88.6214 30.6277 88.8416 31.169 89.2497 31.5752C89.434 31.7662 89.6587 31.9186 89.9102 32.0223C90.1617 32.1261 90.4338 32.1789 90.7082 32.1774C91.0094 32.1912 91.309 32.1422 91.5872 32.0339C91.8655 31.9256 92.1139 31.7607 92.3149 31.5511C92.4915 31.3761 92.6283 31.1691 92.717 30.943H93.6809C93.5762 31.3291 93.3858 31.6901 93.1221 32.0027C92.8332 32.3399 92.4648 32.6099 92.0466 32.7916C91.6277 32.9734 91.1699 33.0619 90.7082 33.0504C90.3046 33.059 89.9025 32.9882 89.5295 32.8425C89.1565 32.6968 88.8202 32.4794 88.5427 32.2044ZM93.6809 27.1191V28.0086H95.7891V33.0514H96.7392V28.0086H98.8374V27.1191H93.6809ZM100.557 32.2045C100.004 31.628 99.6974 30.8711 99.6974 30.0852C99.6974 29.2994 100.004 28.5425 100.557 27.9659C100.835 27.6894 101.169 27.4715 101.539 27.326C101.908 27.1803 102.305 27.1103 102.703 27.12C103.102 27.1113 103.498 27.181 103.869 27.3248C104.239 27.4686 104.574 27.6835 104.855 27.9567C105.137 28.2297 105.358 28.5552 105.505 28.9134C105.653 29.2715 105.723 29.6548 105.712 30.0401V30.3712H100.644C100.692 30.8733 100.932 31.3402 101.317 31.6807C101.693 32.0202 102.192 32.204 102.706 32.1925C103.254 32.2054 103.787 32.0233 104.205 31.6807C104.386 31.5391 104.539 31.3654 104.654 31.1689H105.588C105.369 31.7337 104.974 32.2185 104.457 32.5558C103.94 32.8931 103.327 33.066 102.703 33.0505C102.305 33.0604 101.908 32.9903 101.538 32.8448C101.169 32.6991 100.835 32.4811 100.557 32.2045ZM100.663 29.5734H104.713C104.648 29.1327 104.419 28.7297 104.07 28.4385C103.694 28.1248 103.21 27.9593 102.713 27.9749C102.213 27.9614 101.726 28.1265 101.345 28.4385C100.984 28.7252 100.742 29.1282 100.663 29.5734ZM107.432 27.2514V35.5938H108.39V32.3054L108.512 32.4746C108.697 32.7419 108.949 32.9564 109.242 33.0972C109.795 33.3676 110.42 33.4546 111.026 33.3454C111.631 33.2364 112.186 32.9369 112.61 32.4905C113.151 31.8716 113.449 31.0776 113.449 30.2557C113.449 29.4338 113.151 28.6398 112.61 28.0209C112.351 27.7332 112.034 27.504 111.679 27.3487C111.325 27.1935 110.942 27.1157 110.554 27.1205C110.101 27.1057 109.651 27.2079 109.248 27.4175C108.959 27.5609 108.706 27.7696 108.512 28.0272L108.39 28.2092V27.2514H107.432ZM108.399 30.2749C108.399 29.686 108.608 29.116 108.987 28.6658C109.177 28.4672 109.404 28.3091 109.657 28.2011C109.909 28.0931 110.181 28.0375 110.455 28.0375C110.73 28.0375 111.002 28.0931 111.254 28.2011C111.506 28.3091 111.734 28.4672 111.924 28.6658C112.303 29.116 112.512 29.686 112.512 30.2749C112.512 30.8638 112.303 31.4337 111.924 31.8839C111.733 32.0817 111.506 32.2391 111.253 32.3465C111.001 32.454 110.73 32.5094 110.455 32.5094C110.181 32.5094 109.91 32.454 109.657 32.3465C109.405 32.2391 109.177 32.0817 108.987 31.8839C108.608 31.4337 108.399 30.8638 108.399 30.2749Z" fill="#ACBBBE"></path>
									</svg>