<svg width="147" height="32" viewBox="0 0 147 32" fill="none" xmlns="http://www.w3.org/2000/svg">
										<path fill-rule="evenodd" clip-rule="evenodd" d="M98.3324 0L102.222 10.0946L97.2354 32L110.799 32L115.785 10.0946L111.896 0H98.3324ZM117.879 10.0946L112.793 32H126.356L131.343 10.0946L127.453 0H113.89L117.879 10.0946ZM133.437 10.0946L128.451 32H142.014L147 10.0946L143.011 0H129.547L133.437 10.0946ZM11.9674 10.7003V19.1798H14.9593V7.06622H10.7707L7.47965 14.3344L4.08887 7.06622H0V19.1798H2.99186V10.7003L6.78155 19.1798H8.07802L11.9674 10.7003ZM16.0563 13.123C16.0563 9.28708 19.1479 6.56152 23.2368 6.56152C26.2286 6.56152 27.924 8.07572 28.8216 9.69086L26.3284 10.8013C25.73 9.79181 24.5332 8.98424 23.137 8.98424C20.7436 8.98424 18.9484 10.7003 18.9484 13.123C18.9484 15.5458 20.7436 17.2618 23.137 17.2618C24.5332 17.2618 25.73 16.4543 26.3284 15.4448L28.8216 16.5552C27.8243 18.1704 26.1289 19.6846 23.2368 19.6846C19.2476 19.6846 16.0563 17.0599 16.0563 13.123ZM39.5923 9.18615V19.4827H42.4844V6.86438H30.4172V19.4827H33.3094V9.18615H39.5923ZM59.7374 6.86438V9.18615H52.7565V11.407H56.247C59.1391 11.407 60.7347 13.224 60.7347 15.4448C60.7347 17.6656 59.1391 19.4827 56.247 19.4827H49.8643V6.86438H59.7374ZM52.7565 13.9306V17.1609H55.848C56.945 17.1609 57.7429 16.5552 57.7429 15.5458C57.7429 14.5363 56.945 13.9306 55.848 13.9306H52.7565ZM68.1147 18.5741V19.4826V19.6845H70.8073V13.7287C70.8073 11.1041 68.713 10.2965 66.519 10.2965C64.9233 10.2965 63.4274 10.7003 62.2307 11.7098L63.228 13.3249C64.0258 12.6183 65.0231 12.2145 66.0203 12.2145C67.2171 12.2145 68.1147 12.8202 68.1147 13.7287V14.94C67.4166 14.2334 66.3195 13.8296 65.0231 13.8296C63.4274 13.8296 61.6323 14.6372 61.6323 16.7571C61.6323 18.776 63.4274 19.7855 65.0231 19.7855C66.3195 19.7855 67.4166 19.2807 68.1147 18.5741ZM68.1147 16.1514V17.2618C67.616 17.7665 66.8182 18.0694 66.0203 18.0694C65.0231 18.0694 64.2252 17.5646 64.2252 16.7571C64.2252 15.8486 65.0231 15.3438 66.0203 15.3438C66.9179 15.3438 67.7157 15.6467 68.1147 16.1514ZM73.0013 19.4826V10.2965H75.4946V13.7287H79.5834V10.2965H82.0767V19.4826H79.5834V15.8486H75.4946V19.4826H73.0013ZM88.1601 15.9495L90.7531 19.4826H93.9444L89.9552 14.4353L93.8446 10.2965H90.7531L87.0631 14.3344V10.2965H84.4702V19.4826H87.0631V17.0599L88.1601 15.9495Z" fill="#ACBBBE"></path>
									</svg>